<svg width="50" height="50" viewBox="0 0 50 50" fill="none" xmlns="http://www.w3.org/2000/svg">
<circle cx="25" cy="25" r="24.5" stroke="#E8BB8A"/>
<path fill-rule="evenodd" clip-rule="evenodd" d="M17.6562 18.125C17.6562 17.8661 17.8661 17.6562 18.125 17.6562H18.8281H19.5312C19.7901 17.6562 20 17.8661 20 18.125C20 18.3839 19.7901 18.5938 19.5312 18.5938H19.2969V27.6562H19.5312C19.7901 27.6562 20 27.8661 20 28.125C20 28.3839 19.7901 28.5938 19.5312 28.5938H18.8281H18.125C17.8661 28.5938 17.6562 28.3839 17.6562 28.125C17.6562 27.8661 17.8661 27.6562 18.125 27.6562H18.3594V18.5938H18.125C17.8661 18.5938 17.6562 18.3839 17.6562 18.125ZM22.1875 17.6562C21.756 17.6562 21.4062 18.006 21.4062 18.4375V23.9062V24.375V27.8125C21.4062 28.244 21.756 28.5938 22.1875 28.5938H25.625H26.0938H31.5625C31.9939 28.5938 32.3438 28.244 32.3438 27.8125V18.4375C32.3438 18.006 31.9939 17.6562 31.5625 17.6562H22.1875ZM26.0938 27.6562H31.4062V18.5938H22.3438V23.9062H25.3125C25.744 23.9062 26.0938 24.256 26.0938 24.6875V27.6562ZM22.3438 24.8438V27.6562H25.1562V24.8438H22.3438ZM21.4062 31.875C21.4062 32.1339 21.6161 32.3438 21.875 32.3438C22.1339 32.3438 22.3438 32.1339 22.3438 31.875V31.6406H31.4062V31.875C31.4062 32.1339 31.6161 32.3438 31.875 32.3438C32.1339 32.3438 32.3438 32.1339 32.3438 31.875V31.1719V30.4688C32.3438 30.2099 32.1339 30 31.875 30C31.6161 30 31.4062 30.2099 31.4062 30.4688V30.7031H22.3438V30.4688C22.3438 30.2099 22.1339 30 21.875 30C21.6161 30 21.4062 30.2099 21.4062 30.4688V31.1719V31.875Z" fill="#131313" fill-opacity="0.8"/>
</svg>
