<svg width="50" height="50" viewBox="0 0 50 50" fill="none" xmlns="http://www.w3.org/2000/svg">
<circle cx="25" cy="25" r="24.5" stroke="#E8BB8A"/>
<path d="M26.2955 25.9546C29.0404 25.9546 31.2727 23.7223 31.2727 20.9773C31.2727 18.2323 29.0404 16 26.2955 16H21.733C21.504 16 21.3182 16.1858 21.3182 16.4148V25.125H18.4148C18.1858 25.125 18 25.3109 18 25.5398C18 25.7688 18.1858 25.9546 18.4148 25.9546H21.3182V27.6966H18.4148C18.1858 27.6966 18 27.8824 18 28.1114C18 28.3403 18.1858 28.5262 18.4148 28.5262H21.3182V33.8353C21.3182 34.0642 21.504 34.2501 21.733 34.2501C21.962 34.2501 22.1478 34.0642 22.1478 33.8353V28.5262H27.5399C27.7688 28.5262 27.9546 28.3403 27.9546 28.1114C27.9546 27.8824 27.7688 27.6966 27.5399 27.6966H22.1477V25.9546H26.2955ZM22.1477 16.8295H26.2955C28.5825 16.8295 30.4432 18.6902 30.4432 20.9773C30.4432 23.2643 28.5825 25.125 26.2955 25.125H22.1477V16.8295Z" fill="#131313" fill-opacity="0.8" stroke="#131313" stroke-width="0.365"/>
</svg>
