<svg width="60" height="60" viewBox="0 0 60 60" fill="none" xmlns="http://www.w3.org/2000/svg">
<circle cx="30" cy="30" r="30" fill="#E8BB8A"/>
<path d="M42.2992 39.2828H40.4355V37.5512C40.4355 37.3582 40.2781 37.2058 40.0902 37.2058H38.516V36.5406C38.516 36.3476 38.3586 36.1953 38.1707 36.1953H37.7695V28.9234H38.1707C38.3637 28.9234 38.516 28.766 38.516 28.5781V26.8973H40.0902C40.2832 26.8973 40.4355 26.7398 40.4355 26.5519V24.3023C40.4355 24.1551 40.3441 24.0281 40.2121 23.9773L29.6801 20.0418C29.5988 20.0113 29.5074 20.0113 29.4262 20.0469L19.7777 23.9723C19.6457 24.023 19.5594 24.1551 19.5594 24.2922V26.5469C19.5594 26.7398 19.7168 26.8922 19.9047 26.8922H21.4789V28.573C21.4789 28.766 21.6363 28.9183 21.8242 28.9183H22.2254V36.1953H21.8242C21.6312 36.1953 21.4789 36.3527 21.4789 36.5406V37.2109H19.9047C19.7117 37.2109 19.5594 37.3683 19.5594 37.5562V39.2879H17.7008C17.5078 39.2879 17.3555 39.4453 17.3555 39.6332C17.3555 39.8262 17.5129 39.9785 17.7008 39.9785H42.2941C42.4871 39.9785 42.6395 39.8211 42.6395 39.6332C42.6445 39.4402 42.4871 39.2828 42.2992 39.2828ZM37.8203 37.2109H34.7988V36.891H37.8203V37.2109ZM32.2039 37.2109V36.5457C32.2039 36.3527 32.0465 36.2004 31.8586 36.2004H31.4574V28.9234H31.8586C32.0516 28.9234 32.2039 28.766 32.2039 28.5781V26.8973H34.1031V28.5781C34.1031 28.7711 34.2605 28.9234 34.4484 28.9234H34.8496V36.1953H34.4484C34.2555 36.1953 34.1031 36.3527 34.1031 36.5406V37.2109H32.2039ZM28.4918 37.2109V36.891H31.5133V37.2109H28.4918ZM25.8918 37.2109V36.5457C25.8918 36.3527 25.7344 36.2004 25.5465 36.2004H25.1453V28.9234H25.5465C25.7395 28.9234 25.8918 28.766 25.8918 28.5781V26.8973H27.791V28.5781C27.791 28.7711 27.9484 28.9234 28.1363 28.9234H28.5375V36.1953H28.1363C27.9434 36.1953 27.791 36.3527 27.791 36.5406V37.2109H25.8918ZM31.5082 26.8922V28.2277H28.4867V26.8922H31.5082ZM29.2383 36.1953V28.9234H30.7617V36.1953H29.2383ZM37.0738 36.1953H35.5453V28.9234H37.0738V36.1953ZM37.8203 28.2277H34.7988V26.8922H37.8203V28.2277ZM20.2602 24.5258L29.5633 20.7375L39.7398 24.5308V26.1965H20.2602V24.5258ZM22.1797 26.8922H25.2012V28.2277H22.1797V26.8922ZM22.9262 28.9234H24.4547V36.1953H22.9262V28.9234ZM22.1797 36.8859H25.2012V37.2058H22.1797V36.8859ZM20.2602 37.9016H39.7398V39.2828H20.2602V37.9016Z" fill="#131313" fill-opacity="0.8"/>
</svg>
