<svg width="60" height="60" viewBox="0 0 60 60" fill="none" xmlns="http://www.w3.org/2000/svg">
<circle cx="30" cy="30" r="30" fill="white"/>
<path d="M42.3788 26.7978L30.1913 20.2978C30.0715 20.2341 29.9289 20.2341 29.8091 20.2978L17.6216 26.7978C17.4887 26.8685 17.4062 27.0062 17.4062 27.1561C17.4062 27.3061 17.4887 27.4438 17.6212 27.5145L21.0625 29.3499V34.4686H21.875V29.7834L23.0938 30.4334V32.9013C22.3946 33.0829 21.875 33.7134 21.875 34.4686C21.875 34.84 22.005 35.1784 22.2154 35.4526C21.9936 36.2111 21.875 36.9931 21.875 37.7845V38.9374C21.875 39.0914 21.9619 39.2319 22.0997 39.301L22.5486 39.5257C22.8427 39.6723 23.1713 39.7499 23.5 39.7499C23.8287 39.7499 24.1573 39.6723 24.4514 39.5252L24.9003 39.3006C25.0381 39.2319 25.125 39.0914 25.125 38.9374V37.7845C25.125 36.9931 25.0064 36.2111 24.7846 35.4526C24.995 35.1784 25.125 34.84 25.125 34.4686C25.125 33.7134 24.6054 33.0829 23.9062 32.9013V30.8668L29.8087 34.0149C29.8688 34.0466 29.9342 34.0624 30 34.0624C30.0658 34.0624 30.1312 34.0466 30.1913 34.0149L38.125 29.7834V34.268C35.8654 35.9706 33.0745 36.9061 30.2433 36.9061H29.7571C28.3624 36.9061 26.9836 36.6847 25.6584 36.248L25.4045 37.0199C26.8109 37.4834 28.2759 37.7186 29.7567 37.7186H30.2429C33.3199 37.7186 36.3517 36.6782 38.7807 34.7892C38.8794 34.7124 38.9375 34.5942 38.9375 34.4686V29.3499L42.3788 27.5145C42.5113 27.4438 42.5938 27.3061 42.5938 27.1561C42.5938 27.0062 42.5113 26.8685 42.3788 26.7978ZM24.3125 38.6863L24.0878 38.7985C23.7243 38.9801 23.2753 38.9801 22.9117 38.7985L22.6875 38.6863V37.7845C22.6875 37.1739 22.7618 36.569 22.9085 35.9783C23.0921 36.0506 23.2908 36.0936 23.5 36.0936C23.7092 36.0936 23.9079 36.0506 24.0915 35.9783C24.2382 36.569 24.3125 37.1739 24.3125 37.7845V38.6863ZM24.3125 34.4686C24.3125 34.9167 23.9481 35.2811 23.5 35.2811C23.0519 35.2811 22.6875 34.9167 22.6875 34.4686C22.6875 34.0206 23.0519 33.6561 23.5 33.6561C23.9481 33.6561 24.3125 34.0206 24.3125 34.4686ZM30 33.1955L24.1858 30.0946L29.2188 27.4105C29.4499 27.5047 29.7132 27.5624 30 27.5624C30.9112 27.5624 31.625 27.027 31.625 26.3436C31.625 25.6603 30.9112 25.1249 30 25.1249C29.0888 25.1249 28.375 25.6603 28.375 26.3436C28.375 26.5293 28.4315 26.7024 28.5265 26.8588L23.3225 29.6343L18.6758 27.1561L30 21.1164L41.3242 27.1561L30 33.1955ZM29.1875 26.3436C29.1875 26.1779 29.504 25.9374 30 25.9374C30.496 25.9374 30.8125 26.1779 30.8125 26.3436C30.8125 26.5094 30.496 26.7499 30 26.7499C29.504 26.7499 29.1875 26.5094 29.1875 26.3436Z" fill="#131313" fill-opacity="0.8"/>
</svg>
