<svg width="60" height="60" viewBox="0 0 60 60" fill="none" xmlns="http://www.w3.org/2000/svg">
<circle cx="30" cy="30" r="30" fill="white"/>
<path d="M36.0041 34.8753H28.0585C27.1163 34.8753 26.2815 34.2441 26.0297 33.3408L23.3434 23.9646C23.1913 23.4221 22.6919 23.0452 22.1266 23.0452H20.0225C19.7893 23.0452 19.6 22.8559 19.6 22.6227C19.6 22.3895 19.7893 22.2002 20.0225 22.2002H22.1266C23.0688 22.2002 23.9036 22.8314 24.1554 23.7347L24.6853 25.5802H38.6118C39.0166 25.5802 39.3875 25.7661 39.6283 26.0906C39.87 26.4151 39.9418 26.8241 39.8252 27.2111L38.0076 33.4219C37.7152 34.2973 36.9116 34.8753 36.0041 34.8753ZM24.9269 26.4252L26.8426 33.1109C26.9938 33.6534 27.4932 34.0303 28.0585 34.0303H36.0041C36.5398 34.0303 37.0316 33.6762 37.2006 33.1701L39.0166 26.9694C39.0554 26.8401 39.0309 26.7041 38.9506 26.5959C38.8704 26.4869 38.747 26.4252 38.6118 26.4252H24.9269Z" fill="#131313" fill-opacity="0.8"/>
<path d="M28.8951 39.0998C27.963 39.0998 27.205 38.3418 27.205 37.4097C27.205 36.4777 27.963 35.7197 28.8951 35.7197C29.8271 35.7197 30.5851 36.4777 30.5851 37.4097C30.5851 38.3418 29.8271 39.0998 28.8951 39.0998ZM28.8951 36.5647C28.4286 36.5647 28.0501 36.9441 28.0501 37.4097C28.0501 37.8753 28.4286 38.2547 28.8951 38.2547C29.3615 38.2547 29.7401 37.8753 29.7401 37.4097C29.7401 36.9441 29.3615 36.5647 28.8951 36.5647Z" fill="#131313" fill-opacity="0.8"/>
<path d="M34.8101 39.0998C33.8781 39.0998 33.1201 38.3418 33.1201 37.4097C33.1201 36.4777 33.8781 35.7197 34.8101 35.7197C35.7421 35.7197 36.5001 36.4777 36.5001 37.4097C36.5001 38.3418 35.7421 39.0998 34.8101 39.0998ZM34.8101 36.5647C34.3437 36.5647 33.9651 36.9441 33.9651 37.4097C33.9651 37.8753 34.3437 38.2547 34.8101 38.2547C35.2765 38.2547 35.6551 37.8753 35.6551 37.4097C35.6551 36.9441 35.2765 36.5647 34.8101 36.5647Z" fill="#131313" fill-opacity="0.8"/>
</svg>
