<svg width="60" height="60" viewBox="0 0 60 60" fill="none" xmlns="http://www.w3.org/2000/svg">
<circle cx="30" cy="30" r="30" fill="#E8BB8A"/>
<g clip-path="url(#clip0_5476_212)">
<path d="M40.4606 21.8599C40.3317 21.6937 40.0924 21.6634 39.9262 21.7924C39.76 21.9213 39.7298 22.1605 39.8587 22.3267C41.0288 23.8354 41.7021 25.6834 41.7802 27.5778L36.666 26.2074C36.8796 24.8522 36.9637 23.4756 36.9155 22.11C36.8876 21.3195 36.8145 20.5249 36.6986 19.7389C37.4172 20.0952 38.0899 20.5468 38.692 21.0806C38.8494 21.2201 39.0901 21.2056 39.2296 21.0483C39.3692 20.8909 39.3547 20.6502 39.1973 20.5107C38.2024 19.6286 37.0382 18.9638 35.7825 18.5401L36.1505 17.5089C36.2212 17.3108 36.1179 17.0929 35.9199 17.0223C35.7218 16.9516 35.5039 17.0548 35.4332 17.2529L35.05 18.3266C30.7388 17.2568 26.2208 19.2171 24.0377 23.1143C24.0083 23.1688 23.9808 23.2386 23.9867 23.332L24.1216 25.3174C24.1474 25.6964 24.4113 26.0172 24.7783 26.1155L28.5393 27.1233C28.9005 27.2202 29.2943 27.0778 29.507 26.7604L29.9959 26.0325L30.0554 26.9073C30.0812 27.2864 30.3451 27.6071 30.7121 27.7055L32.2246 28.1108L30.0947 36.0594L26.5321 36.0491C26.3223 36.0491 26.1508 36.2189 26.1501 36.4288C26.1495 36.6392 26.3195 36.8102 26.5299 36.8108L33.9886 36.8324H33.9923C34.3652 36.8324 34.7286 36.6798 34.9897 36.4133L37.6741 33.6742C38.228 33.109 39.0709 32.9054 39.8217 33.1558L40.6381 33.4278L35.5479 38.5532C35.335 38.7676 35.0395 38.8906 34.7373 38.8906H19.9943C19.9557 38.3118 20.116 37.7484 20.5326 37.3333C20.8783 36.9888 21.3369 36.7993 21.8245 36.7993H21.8308L28.6522 36.81H28.6537C28.8633 36.81 29.0337 36.6404 29.0345 36.4305C29.0353 36.2201 28.8654 36.049 28.655 36.0482L21.8334 36.0376C21.1379 36.0349 20.4865 36.3038 19.9949 36.7938C19.3756 37.4111 19.2325 38.2578 19.2325 39.1191C19.2325 39.4131 19.4717 39.6523 19.7657 39.6523H20.6817L19.8938 41.3838C19.7664 41.6639 19.7621 41.9689 19.8575 42.2382H17.8313C17.621 42.2382 17.4505 42.4087 17.4505 42.6191C17.4505 42.8294 17.621 42.9999 17.8313 42.9999H41.268C41.4783 42.9999 41.6488 42.8294 41.6488 42.6191C41.6488 42.4087 41.4783 42.2382 41.268 42.2382H37.6925C37.7879 41.9689 37.7836 41.6638 37.6562 41.3838L36.4478 38.7281L41.4381 33.7031C41.7143 33.4293 41.5941 32.9402 41.2284 32.8216L40.0626 32.433C39.0374 32.0914 37.8864 32.3692 37.13 33.141L34.4457 35.8801C34.327 36.0012 34.1618 36.0705 33.9924 36.0705H33.9907L30.8826 36.0615L32.9602 28.3078L34.473 28.7131C34.8341 28.8101 35.228 28.6676 35.4407 28.3502L35.9297 27.6224L35.9891 28.4972C36.0149 28.8762 36.2788 29.197 36.6458 29.2953L40.4068 30.3031C40.7679 30.4 41.1618 30.2577 41.3745 29.9402L42.4841 28.2883C42.5168 28.2353 42.5488 28.1677 42.5488 28.0743C42.5775 25.8399 41.8361 23.6331 40.4606 21.8599ZM20.9337 42.2382C20.8791 42.2382 20.8261 42.2266 20.776 42.2039C20.5849 42.1169 20.5001 41.8905 20.5872 41.6992L21.5186 39.6523H22.356L21.2807 42.015C21.219 42.1506 21.0828 42.2382 20.9337 42.2382ZM28.4394 42.2382H22.016L23.1928 39.6523H29.1321L28.4394 42.2382ZM29.2279 42.2382L29.9207 39.6523H34.3573L35.5341 42.2382H29.2279ZM36.9628 41.6992C37.0498 41.8906 36.9651 42.1169 36.7732 42.2042C36.7239 42.2267 36.6714 42.2382 36.6169 42.2382C36.4677 42.2382 36.3312 42.1504 36.2693 42.015L35.1708 39.6011C35.4199 39.5423 35.6564 39.434 35.8634 39.2828L36.9628 41.6992ZM28.8746 26.3356C28.8444 26.3806 28.7888 26.4014 28.7364 26.3874L24.9754 25.3797C24.923 25.3656 24.8853 25.3198 24.8816 25.2656L24.7828 23.8119L29.6871 25.126L28.8746 26.3356ZM30.0611 24.4376L24.951 23.0684C26.7956 20.1479 30.1136 18.533 33.4878 18.834C32.8956 19.4801 32.3518 20.1715 31.867 20.8982C31.1309 22.0014 30.5246 23.1907 30.0611 24.4376ZM34.8084 27.9255C34.7781 27.9706 34.7226 27.9914 34.6701 27.9774L30.9091 26.9696C30.8567 26.9556 30.8191 26.9097 30.8153 26.8556L30.7165 25.4018L35.6209 26.716L34.8084 27.9255ZM35.9259 26.0091L30.8004 24.6357C31.24 23.4687 31.8106 22.3552 32.5007 21.321C33.0614 20.4806 33.7047 19.6895 34.4131 18.9651C34.908 19.0612 35.3972 19.2004 35.8697 19.3788C36.0256 20.2895 36.1218 21.2161 36.1543 22.1369C36.1998 23.4271 36.1228 24.7276 35.9259 26.0091ZM40.7421 29.5155C40.7119 29.5605 40.6563 29.5814 40.6038 29.5673L36.8429 28.5596C36.7904 28.5455 36.7527 28.4997 36.7491 28.4456L36.6502 26.9918L41.5546 28.306L40.7421 29.5155Z" fill="#131313" fill-opacity="0.8"/>
</g>
<defs>
<clipPath id="clip0_5476_212">
<rect width="26" height="26" fill="white" transform="translate(17 17)"/>
</clipPath>
</defs>
</svg>
