<svg width="50" height="50" viewBox="0 0 50 50" fill="none" xmlns="http://www.w3.org/2000/svg">
<circle cx="25" cy="25" r="24.5" stroke="#E8BB8A"/>
<path d="M34.3187 18.0095H30.8165C30.6555 18.0095 30.5251 18.1399 30.5251 18.3009V21.9507H27.2024C27.0414 21.9507 26.911 22.0811 26.911 22.2421V25.2485H23.5161C23.3551 25.2485 23.2248 25.3788 23.2248 25.5399V29.0177H19.9727C19.8117 29.0177 19.6814 29.148 19.6814 29.309V32.5477H16.2913C16.1303 32.5477 16 32.6781 16 32.8391C16 33.0001 16.1303 33.1304 16.2913 33.1304H19.9727C20.1337 33.1304 20.2641 33.0001 20.2641 32.8391V29.6003H23.5161C23.6771 29.6003 23.8075 29.47 23.8075 29.309V25.8312H27.2024C27.3633 25.8312 27.4937 25.7009 27.4937 25.5399V22.5334H30.8165C30.9775 22.5334 31.1078 22.4031 31.1078 22.2421V18.5922H34.3187C34.4797 18.5922 34.61 18.4619 34.61 18.3009C34.61 18.1399 34.4797 18.0095 34.3187 18.0095Z" fill="#131313" fill-opacity="0.8" stroke="#131313" stroke-width="0.4"/>
<path d="M18.3268 23.2341C18.3987 23.2341 18.4705 23.2065 18.525 23.152L22.6775 18.9995V21.7905C22.6775 21.9571 22.8124 22.092 22.979 22.092C23.1457 22.092 23.2806 21.9571 23.2806 21.7905V18.3013C23.2806 18.1346 23.1457 17.9998 22.979 17.9998H19.4899C19.3232 17.9998 19.1883 18.1346 19.1883 18.3013C19.1883 18.468 19.3232 18.6029 19.4899 18.6029H22.2808L18.1286 22.7551C18.019 22.8646 18.019 23.0424 18.1283 23.1517C18.1832 23.2065 18.255 23.2341 18.3268 23.2341Z" fill="#131313" fill-opacity="0.8" stroke="#131313" stroke-width="0.4"/>
</svg>
