<svg width="50" height="50" viewBox="0 0 50 50" fill="none" xmlns="http://www.w3.org/2000/svg">
<circle cx="25" cy="25" r="24.5" stroke="#E8BB8A"/>
<path d="M24.4118 21.2269V17.3529C24.4118 17.028 24.6751 16.7646 25 16.7646C25.3249 16.7646 25.5882 17.028 25.5882 17.3529V21.2269L26.3488 20.4664C26.5785 20.2366 26.9509 20.2366 27.1807 20.4664C27.4104 20.6961 27.4104 21.0686 27.1807 21.2982L25.416 23.0629C25.1863 23.2927 24.8138 23.2927 24.5841 23.0629L22.795 21.2739C22.5653 21.0441 22.5653 20.6717 22.795 20.442C23.0248 20.2123 23.3972 20.2123 23.6269 20.442L24.4118 21.2269ZM25.2066 25.0374L34.6183 28.5668C35.1272 28.7577 35.1272 29.4775 34.6183 29.6684L25.2066 33.1978C25.0734 33.2477 24.9266 33.2477 24.7935 33.1978L15.3817 29.6684C14.8728 29.4775 14.8728 28.7577 15.3817 28.5668L24.7934 25.0374C24.9266 24.9875 25.0734 24.9875 25.2066 25.0374ZM17.2635 29.1176L25 32.0188L32.7365 29.1176L25 26.2164L17.2635 29.1176Z" fill="#131313" fill-opacity="0.8"/>
</svg>
