<svg width="60" height="60" viewBox="0 0 60 60" fill="none" xmlns="http://www.w3.org/2000/svg">
<circle cx="30" cy="30" r="29.5" stroke="#E8BB8A"/>
<path d="M40.9968 30.0449C40.9166 29.6207 40.5898 29.3111 40.1599 29.2538C39.6898 29.1965 39.2082 29.1678 38.7324 29.1678C37.8668 29.1678 37.0126 29.2653 36.1871 29.4487C36.7375 27.5512 37.7865 25.8429 39.2426 24.4957C39.5579 24.2033 39.6439 23.7676 39.4547 23.3778C39.2713 22.988 38.87 22.7702 38.4401 22.8332C37.97 22.8963 37.4999 22.9937 37.0413 23.1199C35.6368 23.4982 34.3412 24.1173 33.1889 24.9715C33.103 24.7766 33.0112 24.5874 32.9138 24.3982C31.9048 22.4377 30.357 20.8211 28.4423 19.7147C28.0296 19.4739 27.5996 19.2618 27.1639 19.0783C26.7626 18.9121 26.327 19.0153 26.0461 19.342C25.7652 19.6688 25.7365 20.1159 25.9658 20.4771C26.9404 22.0249 27.5022 23.7906 27.6168 25.6078C26.3098 24.4498 24.7276 23.5842 22.9791 23.1141C22.5205 22.988 22.0447 22.8963 21.5803 22.8275C21.1504 22.7702 20.7548 22.9823 20.5656 23.3721C20.3822 23.7619 20.4682 24.1976 20.7778 24.49C22.2339 25.8371 23.2772 27.5455 23.8275 29.443C23.002 29.2595 22.1536 29.1621 21.2822 29.1621C20.8064 29.1621 20.3249 29.1907 19.8548 29.2481C19.4249 29.2997 19.0981 29.6092 19.0178 30.0392C18.9376 30.4634 19.1325 30.8647 19.5166 31.0653C20.8981 31.7991 22.0791 32.7966 23.0078 33.9832C22.337 33.7711 21.6319 33.6622 20.9096 33.6622H20.8867C20.4625 33.6622 20.1128 33.9259 19.9924 34.3329C19.872 34.7399 20.0153 35.1527 20.365 35.3877C21.6434 36.2476 22.5663 37.5317 22.9676 39.0108C23.2829 40.1802 24.3435 41 25.5416 41H34.4731C35.6712 41 36.7317 40.1802 37.047 39.0108C37.4483 37.5317 38.3713 36.2476 39.6497 35.3877C39.9993 35.1527 40.1484 34.7399 40.0223 34.3329C39.9019 33.9259 39.5465 33.6679 39.128 33.6622H39.105C38.3827 33.6622 37.6833 33.7711 37.0069 33.9775C37.9356 32.7908 39.1165 31.7876 40.4981 31.0596C40.8822 30.8704 41.0771 30.4691 40.9968 30.0449ZM37.2133 23.7447C37.649 23.6301 38.0961 23.5383 38.5375 23.4753C38.7611 23.4466 38.8528 23.6071 38.8757 23.6587C38.8987 23.7103 38.9617 23.8823 38.8069 24.0256C37.1731 25.5448 36.0209 27.4824 35.4763 29.6379C35.0406 29.764 34.6164 29.9188 34.2036 30.0965C34.2266 29.4602 34.1979 28.8238 34.1119 28.1933C34.4444 27.5627 34.8457 27.2072 34.8514 27.2015C34.9833 27.0869 35.0005 26.8805 34.8858 26.7486C34.7712 26.6168 34.5648 26.5996 34.4329 26.7142C34.4215 26.7257 34.2094 26.9149 33.9514 27.2531C33.831 26.6856 33.6648 26.1295 33.4584 25.5849C34.5705 24.7307 35.8317 24.1116 37.2133 23.7447ZM26.5333 19.7605C26.5677 19.7204 26.7053 19.5828 26.9117 19.6688C27.3244 19.8408 27.7315 20.0472 28.1213 20.2707C31.687 22.3288 33.8023 26.2957 33.5386 30.4003C32.7303 30.8073 31.9736 31.3118 31.2742 31.908C31.1653 31.3863 31.022 30.8761 30.85 30.3831C31.6698 26.3932 30.1736 23.8995 30.1105 23.7963C30.0188 23.6473 29.8181 23.5957 29.6691 23.6874C29.5201 23.7791 29.4685 23.9798 29.5602 24.1288C29.5716 24.1517 30.7354 26.0894 30.3742 29.2481C29.8353 28.1359 29.1302 27.1155 28.2761 26.2327C28.2703 24.0657 27.6569 21.9561 26.5104 20.1217C26.3958 19.9554 26.4989 19.8007 26.5333 19.7605ZM21.2077 24.0256C21.0472 23.8766 21.116 23.7046 21.1389 23.6587C21.1618 23.6071 21.2593 23.4466 21.4771 23.4753C21.9186 23.5383 22.3657 23.6301 22.8014 23.7447C26.906 24.8454 29.9959 28.2448 30.7067 32.424C30.4602 32.659 30.2252 32.9112 30.0016 33.1692C29.8067 32.9456 29.606 32.7278 29.3939 32.5157C28.8608 31.9883 28.2818 31.5125 27.6741 31.1054C27.1525 28.4971 25.8798 26.9951 25.8225 26.9321C25.7078 26.7945 25.5015 26.783 25.3696 26.8977C25.232 27.0123 25.2206 27.2187 25.3352 27.3506C25.3467 27.362 26.3556 28.5544 26.906 30.6296C26.155 30.2111 25.3639 29.8729 24.5384 29.6322C23.9938 27.4824 22.8415 25.5448 21.2077 24.0256ZM19.8147 30.5035C19.6255 30.4003 19.6427 30.2169 19.6484 30.1653C19.6599 30.108 19.7115 29.9245 19.9293 29.9016C20.3707 29.8443 20.8294 29.8213 21.2765 29.8213C27.1467 29.8213 31.9736 34.5336 32.1456 40.3694H29.371C29.3309 38.4662 28.8837 36.7292 28.0468 35.2043C27.2614 33.7826 26.2754 32.8138 25.5817 32.252C25.4441 32.1373 25.2378 32.1602 25.1288 32.2978C25.0142 32.4354 25.0371 32.6418 25.1747 32.7507C26.476 33.8055 28.6372 36.1846 28.7289 40.3637H25.9486C25.834 36.2132 23.5008 32.4526 19.8147 30.5035ZM23.5868 38.856C23.1453 37.2279 22.1307 35.8119 20.7204 34.8661C20.5542 34.7514 20.5886 34.5794 20.6 34.5336C20.6172 34.482 20.6803 34.3215 20.8809 34.3215H20.9039C21.8727 34.3215 22.8014 34.5336 23.667 34.9521C24.6588 36.5515 25.2378 38.4088 25.2951 40.3579C24.4982 40.2548 23.8103 39.6643 23.5868 38.856ZM36.3476 34.9463C37.2133 34.5336 38.142 34.3215 39.105 34.3215H39.128C39.3286 34.3215 39.3917 34.482 39.4089 34.5336C39.4261 34.5852 39.4605 34.7514 39.2885 34.8661C37.884 35.8119 36.8636 37.2279 36.4222 38.856C36.2043 39.67 35.5164 40.2548 34.7081 40.3522C34.7712 38.4031 35.3502 36.5457 36.3476 34.9463ZM40.2 30.5035C36.5139 32.4526 34.1807 36.2132 34.066 40.3694H32.7934C32.759 39.0452 32.4953 37.7553 32.0367 36.5515C32.7991 34.6826 33.9743 33.4558 34.84 32.7564C34.9775 32.6418 35.0005 32.4412 34.8858 32.3036C34.7712 32.166 34.5705 32.1431 34.4329 32.2577C33.6017 32.9342 32.4953 34.0635 31.687 35.7489C31.343 35.0208 30.9188 34.3329 30.4201 33.6909C32.4953 31.2316 35.5107 29.8271 38.7324 29.8271C39.1853 29.8271 39.6382 29.8557 40.0796 29.9073C40.3032 29.936 40.349 30.1194 40.3605 30.171C40.372 30.2169 40.3892 30.4003 40.2 30.5035Z" fill="#131313" fill-opacity="0.8"/>
</svg>
