<svg width="60" height="60" viewBox="0 0 60 60" fill="none" xmlns="http://www.w3.org/2000/svg">
<circle cx="30" cy="30" r="29.5" stroke="#E8BB8A"/>
<g clip-path="url(#clip0_5476_844)">
<path d="M35.3092 28.2944C35.0336 28.2944 34.7632 28.3386 34.5032 28.4244C33.4398 23.0632 30 17 25.9206 17C20.9962 17 17 25.84 17 31.6094C17 37.3788 21.2718 37.683 25.5306 37.6882V42.6672C25.5384 43.1794 26.3028 43.1794 26.3106 42.6672V37.6882C27.6834 37.6882 29.0588 37.6674 30.2912 37.4438C30.7098 39.8852 32.8704 40.0334 34.9166 40.0412V42.61C34.9166 42.8258 35.0908 43 35.3066 43C35.5224 43 35.6966 42.8258 35.6966 42.61V40.0412C37.9768 40.0308 40.3974 39.8514 40.3974 36.5182C40.3974 33.185 38.2108 28.2944 35.3066 28.2944H35.3092ZM30.221 36.6404C29.1212 36.8484 27.8082 36.8978 26.3106 36.9056V31.248L30.4342 27.8836C30.8242 27.5534 30.3432 26.9606 29.9402 27.2804L26.3106 30.2418V26.4224C26.3028 25.9102 25.5384 25.9102 25.5306 26.4224V32.5636L21.901 29.6022C21.498 29.285 21.017 29.8752 21.407 30.2054L25.5306 33.5698V36.9082C20.6972 36.8874 17.78 36.4246 17.78 31.612C17.78 26.2742 21.5058 17.78 25.9206 17.78C29.61 17.78 32.8158 23.708 33.7726 28.7702C31.638 30.1196 30.1768 33.9702 30.2236 36.643L30.221 36.6404ZM35.6992 39.2586V36.4012L37.9066 34.5994C38.2992 34.2692 37.8156 33.6764 37.4126 33.9962L35.6992 35.395V33.6608C35.6992 33.445 35.525 33.2708 35.3092 33.2708C35.0934 33.2708 34.9192 33.445 34.9192 33.6608V36.6742L33.2058 35.2754C32.8028 34.9582 32.3218 35.5484 32.7118 35.8786L34.9192 37.6804V39.2586C32.4804 39.2404 30.9984 38.9986 30.9984 36.5156C30.9984 33.7102 33.0134 29.0718 35.3092 29.0718C37.605 29.0718 39.62 33.7102 39.62 36.5156C39.62 38.996 38.1406 39.2404 35.6992 39.2586Z" fill="#131313" fill-opacity="0.8"/>
</g>
<defs>
<clipPath id="clip0_5476_844">
<rect width="26" height="26" fill="white" transform="translate(17 17)"/>
</clipPath>
</defs>
</svg>
