<svg width="60" height="60" viewBox="0 0 60 60" fill="none" xmlns="http://www.w3.org/2000/svg">
<circle cx="30" cy="30" r="29.5" stroke="#E8BB8A"/>
<g clip-path="url(#clip0_5476_851)">
<path d="M42.5906 34.8072C41.6822 34.8072 41.21 35.1143 40.7934 35.3853C40.4258 35.6244 40.1083 35.8309 39.4427 35.8309C38.7772 35.8309 38.4597 35.6244 38.092 35.3853C37.6755 35.1143 37.2033 34.8072 36.2949 34.8072C35.3865 34.8072 34.9144 35.1143 34.4978 35.3853C34.1302 35.6244 33.8127 35.8309 33.1472 35.8309C32.4818 35.8309 32.1643 35.6244 31.7967 35.3853C31.3801 35.1143 30.9079 34.8072 29.9996 34.8072C29.0913 34.8072 28.6192 35.1143 28.2026 35.3853C27.835 35.6244 27.5176 35.8309 26.8521 35.8309C26.1867 35.8309 25.8692 35.6244 25.5016 35.3853C25.085 35.1143 24.6129 34.8072 23.7046 34.8072C22.7962 34.8072 22.3241 35.1143 21.9075 35.3853C21.5399 35.6244 21.2224 35.8309 20.5569 35.8309C19.8915 35.8309 19.5741 35.6244 19.2065 35.3853C18.7899 35.1143 18.3178 34.8072 17.4094 34.8072C17.1833 34.8072 17 34.9906 17 35.2167C17 35.4428 17.1833 35.6261 17.4094 35.6261C18.0749 35.6261 18.3924 35.8326 18.7599 36.0717C19.1765 36.3427 19.6486 36.6497 20.5569 36.6497C21.4653 36.6497 21.9374 36.3426 22.354 36.0717C22.7216 35.8326 23.0391 35.6261 23.7046 35.6261C24.37 35.6261 24.6875 35.8326 25.0551 36.0717C25.4717 36.3427 25.9438 36.6497 26.8521 36.6497C27.7605 36.6497 28.2326 36.3426 28.6491 36.0717C29.0167 35.8326 29.3342 35.6261 29.9996 35.6261C30.6651 35.6261 30.9826 35.8326 31.3502 36.0717C31.7667 36.3427 32.2389 36.6497 33.1472 36.6497C34.0556 36.6497 34.5277 36.3426 34.9443 36.0717C35.3119 35.8326 35.6294 35.6261 36.2949 35.6261C36.9604 35.6261 37.2779 35.8326 37.6456 36.0717C38.0622 36.3427 38.5343 36.6497 39.4427 36.6497C40.3511 36.6497 40.8233 36.3426 41.2399 36.0717C41.6075 35.8326 41.925 35.6261 42.5906 35.6261C42.8167 35.6261 43 35.4428 43 35.2167C43 34.9906 42.8167 34.8072 42.5906 34.8072ZM42.5906 38.5992C41.6822 38.5992 41.21 38.9062 40.7934 39.1772C40.4258 39.4163 40.1083 39.6228 39.4427 39.6228C38.7772 39.6228 38.4597 39.4163 38.092 39.1772C37.6755 38.9063 37.2033 38.5992 36.2949 38.5992C35.3865 38.5992 34.9144 38.9062 34.4978 39.1772C34.1302 39.4163 33.8127 39.6228 33.1472 39.6228C32.4818 39.6228 32.1643 39.4163 31.7967 39.1772C31.3801 38.9063 30.9079 38.5992 29.9996 38.5992C29.0913 38.5992 28.6192 38.9062 28.2026 39.1772C27.835 39.4163 27.5176 39.6228 26.8521 39.6228C26.1867 39.6228 25.8692 39.4163 25.5016 39.1772C25.085 38.9063 24.6129 38.5992 23.7046 38.5992C22.7962 38.5992 22.3241 38.9062 21.9075 39.1772C21.5399 39.4163 21.2224 39.6228 20.5569 39.6228C19.8915 39.6228 19.5741 39.4163 19.2065 39.1772C18.7899 38.9063 18.3178 38.5992 17.4094 38.5992C17.1833 38.5992 17 38.7825 17 39.0086C17 39.2347 17.1833 39.4181 17.4094 39.4181C18.0749 39.4181 18.3924 39.6245 18.7599 39.8636C19.1765 40.1346 19.6486 40.4417 20.5569 40.4417C21.4653 40.4417 21.9374 40.1346 22.354 39.8636C22.7216 39.6245 23.0391 39.4181 23.7046 39.4181C24.37 39.4181 24.6875 39.6245 25.0551 39.8636C25.4717 40.1346 25.9438 40.4417 26.8521 40.4417C27.7605 40.4417 28.2326 40.1346 28.6491 39.8636C29.0167 39.6245 29.3342 39.4181 29.9996 39.4181C30.6651 39.4181 30.9826 39.6245 31.3502 39.8636C31.7667 40.1346 32.2389 40.4417 33.1472 40.4417C34.0556 40.4417 34.5277 40.1346 34.9443 39.8636C35.3119 39.6245 35.6294 39.4181 36.2949 39.4181C36.9604 39.4181 37.2779 39.6245 37.6456 39.8636C38.0622 40.1346 38.5343 40.4417 39.4427 40.4417C40.3511 40.4417 40.8233 40.1346 41.2399 39.8636C41.6075 39.6245 41.925 39.4181 42.5906 39.4181C42.8167 39.4181 43 39.2347 43 39.0086C43 38.7825 42.8167 38.5992 42.5906 38.5992ZM28.1337 33.5309C28.3598 33.5309 28.5431 33.3476 28.5431 33.1215V30.3314H37.9151V33.1215C37.9151 33.3476 38.0985 33.5309 38.3246 33.5309C38.5507 33.5309 38.734 33.3476 38.734 33.1215V22.101C38.734 21.1507 39.5072 20.3775 40.4576 20.3775C41.4079 20.3775 42.1811 21.1507 42.1811 22.101C42.1811 22.3271 42.3644 22.5105 42.5906 22.5105C42.8167 22.5105 43 22.3271 43 22.101C43 20.6991 41.8595 19.5586 40.4576 19.5586C39.0557 19.5586 37.9151 20.6991 37.9151 22.101V25.7798H28.5431V22.101C28.5431 21.1507 29.3163 20.3775 30.2666 20.3775C31.217 20.3775 31.9902 21.1507 31.9902 22.101C31.9902 22.3271 32.1735 22.5105 32.3996 22.5105C32.6258 22.5105 32.8091 22.3271 32.8091 22.101C32.8091 20.6991 31.6685 19.5586 30.2666 19.5586C28.8647 19.5586 27.7242 20.6991 27.7242 22.101V33.1215C27.7242 33.3476 27.9075 33.5309 28.1337 33.5309ZM28.5431 26.5987H37.9151V29.5125H28.5431V26.5987Z" fill="#131313" fill-opacity="0.8"/>
</g>
<defs>
<clipPath id="clip0_5476_851">
<rect width="26" height="26" fill="white" transform="translate(17 17)"/>
</clipPath>
</defs>
</svg>
