<svg width="60" height="60" viewBox="0 0 60 60" fill="none" xmlns="http://www.w3.org/2000/svg">
<circle cx="30" cy="30" r="29.5" stroke="#E8BB8A"/>
<g clip-path="url(#clip0_5476_858)">
<path d="M42.6767 37.5009H41.5921V32.4537C41.5921 32.274 41.4468 32.1287 41.2671 32.1287C41.0875 32.1287 40.9421 32.274 40.9421 32.4537V33.1688H29.5124V32.4537C29.5124 32.274 29.3671 32.1287 29.1874 32.1287C29.0078 32.1287 28.8624 32.274 28.8624 32.4537V37.5009H28.0381C27.8585 37.5009 27.7131 37.6463 27.7131 37.8259V39.8769C27.7131 40.0566 27.8585 40.2019 28.0381 40.2019H28.4533V42.35H23.1163V34.6042C26.1573 34.435 28.5809 31.93 28.5809 28.8662C28.5809 25.6932 25.9836 23.1118 22.791 23.1118C19.5983 23.1118 17.0007 25.6932 17.0007 28.8662C17.0007 31.9302 19.4249 34.4353 22.4663 34.6042V42.35H17.3257C17.1461 42.35 17.0007 42.4954 17.0007 42.6751C17.0007 42.8547 17.1461 43.0001 17.3257 43.0001H42.6767C42.8563 43.0001 43.0017 42.8547 43.0017 42.6751C43.0017 42.4954 42.8563 42.35 42.6767 42.35H42.1873V40.2019H42.6767C42.8563 40.2019 43.0017 40.0566 43.0017 39.8769V37.8259C43.0017 37.6463 42.8563 37.5009 42.6767 37.5009ZM17.6508 28.8662C17.6508 26.0515 19.9566 23.7618 22.791 23.7618C25.625 23.7618 27.9308 26.0515 27.9308 28.8662C27.9308 31.5718 25.7986 33.7861 23.1163 33.9542V30.932L24.6928 29.3531C24.8194 29.2258 24.8194 29.0201 24.6925 28.8932C24.5655 28.7668 24.3595 28.7665 24.2326 28.8935L23.1163 30.0117V28.1127C23.1163 27.933 22.9709 27.7877 22.7913 27.7877C22.6116 27.7877 22.4663 27.933 22.4663 28.1127V30.0117L21.3503 28.8938C21.2233 28.7662 21.017 28.7668 20.8907 28.8932C20.7634 29.0201 20.7634 29.2258 20.8901 29.3527L22.4663 30.9316V33.9542C19.7834 33.7865 17.6508 31.572 17.6508 28.8662ZM40.9421 33.8188V35.3899H29.5124V33.8188H40.9421ZM29.5124 36.0399H40.9421V37.5009H29.5124V36.0399ZM41.5372 42.35H29.1033V40.2019H41.5372V42.35ZM42.3517 39.5519H28.3631V38.1509H42.3517V39.5519Z" fill="#131313" fill-opacity="0.8"/>
<path d="M17.324 21.6581H19.2671C19.4468 21.6581 19.5921 21.5127 19.5921 21.3331V20.8316C19.5921 19.7553 20.4678 18.8796 21.5441 18.8796C21.919 18.8796 22.2846 18.9878 22.601 19.1922C22.6861 19.2472 22.7924 19.2598 22.888 19.2249C22.9832 19.1907 23.0571 19.1135 23.0876 19.0167C23.3444 18.1991 24.0928 17.65 24.9501 17.65C25.9791 17.65 26.8335 18.4553 26.8957 19.4833C26.9014 19.5791 26.9497 19.6677 27.0268 19.7248C27.1039 19.782 27.2023 19.8029 27.2966 19.7794C28.3554 19.5252 29.2736 20.3292 29.2736 21.3331C29.2736 21.5127 29.419 21.6581 29.5986 21.6581H31.2187C31.121 21.9183 31.065 22.1988 31.065 22.4928V22.9464C31.065 23.126 31.2104 23.2714 31.39 23.2714C31.5697 23.2714 31.715 23.126 31.715 22.9464V22.4928C31.715 21.5359 32.4933 20.7576 33.4499 20.7576C33.7835 20.7576 34.1082 20.8538 34.3891 21.0354C34.4744 21.0899 34.5801 21.103 34.676 21.068C34.7712 21.0338 34.8452 20.9566 34.8756 20.8598C35.1038 20.1333 35.7691 19.6452 36.5312 19.6452C37.4456 19.6452 38.2051 20.3609 38.2606 21.2747C38.2664 21.3708 38.3146 21.4594 38.392 21.5165C38.4698 21.5737 38.5676 21.593 38.6621 21.5708C39.5807 21.3474 40.4116 22.0567 40.4116 22.9464C40.4116 23.126 40.557 23.2714 40.7366 23.2714H42.675C42.8546 23.2714 43 23.126 43 22.9464C43 22.7667 42.8546 22.6214 42.675 22.6214H41.0363C40.8731 21.5933 39.9438 20.816 38.8618 20.884C38.6323 19.8004 37.6687 18.9951 36.5312 18.9951C35.6148 18.9951 34.8001 19.5087 34.4005 20.306C34.1018 20.1755 33.779 20.1076 33.4499 20.1076C32.6961 20.1076 32.024 20.4602 31.5867 21.0081H29.9002C29.7342 19.8654 28.7068 18.9923 27.4987 19.09C27.2594 17.8931 26.2016 17 24.9501 17C23.9392 17 23.0419 17.5729 22.6112 18.4594C22.2767 18.3083 21.9139 18.2296 21.5441 18.2296C20.1095 18.2296 18.9421 19.397 18.9421 20.8316V21.0081H17.324C17.1444 21.0081 16.999 21.1534 16.999 21.3331C16.999 21.5127 17.1444 21.6581 17.324 21.6581Z" fill="#131313" fill-opacity="0.8"/>
</g>
<defs>
<clipPath id="clip0_5476_858">
<rect width="26" height="26" fill="white" transform="translate(17 17)"/>
</clipPath>
</defs>
</svg>
