<svg width="92" height="92" viewBox="0 0 92 92" fill="none" xmlns="http://www.w3.org/2000/svg">
<g clip-path="url(#clip0_5538_2189)">
<path d="M8.6113 53.1838C8.20632 52.7546 7.72871 52.4156 7.18068 52.1647C6.63264 51.916 6.04718 51.7906 5.42431 51.7906C4.63857 51.7906 3.92326 51.9644 3.27618 52.3144C2.6291 52.6644 2.08546 53.1684 1.64967 53.8287V51.5683L2.6401 50.7275L2.51025 50.5977L-0.104492 52.8008L0.0253651 52.9307L0.995986 52.1273V65.8613H1.64967V59.265C2.08546 59.9011 2.6313 60.3677 3.28498 60.667C3.93867 60.9664 4.65178 61.116 5.42431 61.116C6.03398 61.116 6.61063 61.0016 7.15206 60.7705C7.6935 60.5394 8.17111 60.2202 8.58048 59.8087C8.99206 59.3971 9.3156 58.9173 9.55111 58.3692C9.78661 57.8212 9.90546 57.2291 9.90546 56.5931C9.90546 55.9196 9.79101 55.2923 9.55991 54.7046C9.33541 54.1214 9.01627 53.6152 8.6113 53.1838ZM8.94804 58.2218C8.74335 58.7566 8.46163 59.2254 8.10728 59.6238C7.75292 60.0222 7.34135 60.3413 6.87474 60.5768C6.40814 60.8145 5.91293 60.9312 5.3891 60.9312C5.01493 60.9312 4.64517 60.8915 4.27761 60.8101C3.91005 60.7287 3.5601 60.6054 3.23216 60.4359C2.90202 60.2687 2.60268 60.0442 2.33417 59.7624C2.06565 59.4829 1.83895 59.1484 1.65187 58.7632V54.3349C2.05025 53.5381 2.58288 52.9461 3.24977 52.5587C3.91666 52.1735 4.64297 51.9799 5.42651 51.9799C5.95034 51.9799 6.44115 52.1053 6.90336 52.354C7.36336 52.6027 7.76833 52.9373 8.11828 53.3533C8.46603 53.7714 8.74336 54.2534 8.95025 54.8015C9.15493 55.3495 9.25838 55.9218 9.25838 56.5204C9.25618 57.1191 9.15493 57.6847 8.94804 58.2218Z" fill="#131313"/>
<path d="M11.3659 55.8099H19.8132C19.7383 55.2244 19.5711 54.6786 19.3092 54.1745C19.0472 53.6705 18.7171 53.2369 18.3187 52.876C17.9204 52.515 17.4648 52.2289 16.9541 52.0154C16.4435 51.8041 15.8955 51.6985 15.31 51.6985C14.6629 51.6853 14.0577 51.8085 13.4964 52.0638C12.9352 52.3191 12.4466 52.6647 12.0306 53.1005C11.6124 53.5363 11.2823 54.0513 11.0402 54.6411C10.7981 55.2332 10.6748 55.8583 10.6748 56.5186C10.6748 57.1546 10.7959 57.7577 11.0402 58.3322C11.2823 58.9044 11.6168 59.4062 12.0394 59.8354C12.462 60.2646 12.9572 60.6057 13.525 60.8544C14.0929 61.1032 14.6982 61.2286 15.3474 61.2286C15.8713 61.2154 16.3687 61.1252 16.8419 60.9579C17.3151 60.7906 17.7487 60.5551 18.1405 60.258C18.5322 59.9587 18.8756 59.6043 19.1683 59.1927C19.461 58.7811 19.6767 58.3321 19.8132 57.8479L19.1397 58.035C18.9394 58.5214 18.7215 58.9506 18.486 59.3248C18.2483 59.6989 17.982 60.0137 17.6827 60.269C17.3833 60.5243 17.04 60.718 16.6548 60.8478C16.2674 60.9777 15.8316 61.0437 15.3474 61.0437C14.7488 61.0437 14.2051 60.9249 13.7121 60.6894C13.2191 60.4539 12.7987 60.1281 12.451 59.7188C12.101 59.3072 11.8281 58.8318 11.6278 58.2903C11.4275 57.7489 11.3285 57.1722 11.3285 56.5626C11.3285 56.4261 11.3307 56.2985 11.3373 56.1796C11.3461 56.0564 11.3549 55.9353 11.3659 55.8099ZM11.8347 54.1283C12.0592 53.6683 12.3387 53.2677 12.6755 52.9332C13.0122 52.5965 13.404 52.3345 13.853 52.1475C14.302 51.9604 14.7928 51.8679 15.3298 51.8679C15.8537 51.8679 16.3357 51.9714 16.7781 52.1761C17.2205 52.3808 17.61 52.6559 17.9468 52.9992C18.2835 53.3426 18.5564 53.741 18.7699 54.1944C18.9812 54.65 19.1243 55.132 19.1991 55.6426H11.3879C11.4605 55.0945 11.6102 54.5905 11.8347 54.1283Z" fill="#131313"/>
<path d="M21.669 60.3789C21.9749 60.6958 22.3359 60.9467 22.7519 61.1272C23.17 61.3077 23.6014 61.3979 24.0504 61.3979C24.4994 61.3979 24.9308 61.3231 25.349 61.1734C25.7672 61.0237 26.1347 60.819 26.4517 60.5571C26.7686 60.2952 27.0239 59.9937 27.2176 59.6503C27.4113 59.307 27.5081 58.9372 27.5081 58.5388C27.5081 58.1405 27.4267 57.7729 27.266 57.4362C27.1031 57.0994 26.8853 56.8001 26.6123 56.5382C26.3372 56.2763 26.0247 56.0584 25.6681 55.8845C25.3138 55.7106 24.9418 55.5984 24.5566 55.5478C24.8186 55.4971 25.0673 55.4179 25.305 55.3056C25.5405 55.1934 25.7496 55.0569 25.93 54.8941C26.1105 54.7312 26.2536 54.5507 26.3592 54.3526C26.4649 54.1545 26.5177 53.9411 26.5177 53.7166C26.5177 53.3688 26.4495 53.0651 26.313 52.8098C26.1765 52.5545 25.9917 52.3432 25.7628 52.1737C25.5317 52.0064 25.2676 51.881 24.9682 51.7995C24.6689 51.7181 24.363 51.6785 24.0526 51.6785C23.8039 51.6785 23.5596 51.7159 23.3241 51.7907C23.0864 51.8656 22.8729 51.969 22.6792 52.0989C22.4855 52.2287 22.3205 52.385 22.184 52.5655C22.0475 52.7459 21.9419 52.9374 21.8671 53.1355L22.2038 53.1905C22.3161 52.779 22.5406 52.4554 22.8773 52.2199C23.2141 51.9844 23.6256 51.8655 24.1098 51.8655C24.7085 51.8788 25.1707 52.0614 25.5031 52.4158C25.8332 52.7701 25.9851 53.2037 25.9609 53.7144C25.9476 54.2382 25.7672 54.6652 25.4194 54.9953C25.0695 55.3255 24.6029 55.4905 24.0174 55.4905V55.6028C24.4532 55.6028 24.845 55.6864 25.1949 55.8559C25.5427 56.0232 25.842 56.2455 26.0929 56.5184C26.3416 56.7935 26.5331 57.106 26.663 57.4626C26.7928 57.8169 26.8588 58.1757 26.8588 58.5367C26.8456 58.924 26.7752 59.2784 26.6431 59.6019C26.5133 59.9255 26.3262 60.2072 26.0819 60.4427C25.8398 60.6804 25.5493 60.8653 25.2125 61.0039C24.8758 61.1404 24.4906 61.2086 24.0548 61.2086C23.6322 61.2086 23.2471 61.1052 22.9059 60.9005C22.5626 60.6958 22.2742 60.4273 22.0365 60.0971C21.7988 59.767 21.6294 59.3928 21.5237 58.9768C21.4181 58.5587 21.3829 58.1449 21.4203 57.7333L20.804 57.9754C20.7534 58.4354 20.8106 58.8734 20.9713 59.2828C21.1298 59.6965 21.3631 60.0619 21.669 60.3789Z" fill="#131313"/>
<path d="M29.4932 60.2664C29.83 60.6097 30.224 60.8804 30.6796 61.0785C31.1352 61.2788 31.6238 61.3844 32.1454 61.3955C32.8563 61.4087 33.51 61.2458 34.1065 60.909C34.7051 60.5723 35.1849 60.1365 35.5459 59.6017V61.1908L36.1996 61.2084V51.6782L35.5459 51.9952V59.1153C35.3962 59.4388 35.1959 59.7315 34.9472 59.9934C34.6985 60.2554 34.4234 60.4755 34.1241 60.6559C33.8247 60.8364 33.5034 60.9729 33.1622 61.0675C32.8189 61.16 32.4799 61.2084 32.1432 61.2084C31.6942 61.2084 31.2826 61.1203 30.9107 60.9464C30.5365 60.7726 30.213 60.5239 29.94 60.1981C29.6649 59.8746 29.4536 59.4828 29.304 59.0206C29.1543 58.5606 29.0795 58.0434 29.0795 57.4689V51.676L28.4258 51.9005V57.4888C28.4258 58.05 28.5182 58.5672 28.7053 59.0404C28.8946 59.5158 29.1565 59.9252 29.4932 60.2664Z" fill="#131313"/>
<path d="M48.8705 59.8374C49.293 60.2665 49.7883 60.6077 50.3561 60.8564C50.9239 61.1051 51.5292 61.2306 52.1785 61.2306C52.7023 61.2174 53.1997 61.1271 53.6729 60.9598C54.1461 60.7926 54.5797 60.5571 54.9715 60.2599C55.3633 59.9606 55.7066 59.6063 55.9994 59.1947C56.2921 58.7831 56.5078 58.3341 56.6442 57.8499L55.9707 58.037C55.7705 58.5234 55.5526 58.9526 55.3171 59.3267C55.0793 59.7009 54.813 60.0156 54.5137 60.2709C54.2144 60.5263 53.871 60.7199 53.4859 60.8498C53.0985 60.9796 52.6627 61.0457 52.1785 61.0457C51.5798 61.0457 51.0362 60.9268 50.5432 60.6913C50.0502 60.4558 49.6298 60.1301 49.282 59.7207C48.9321 59.3091 48.6592 58.8337 48.4589 58.2923C48.2586 57.7508 48.1595 57.1742 48.1595 56.5645C48.1595 56.4281 48.1617 56.3004 48.1683 56.1816C48.175 56.0627 48.1838 55.9417 48.197 55.8162H56.6442C56.5694 55.2307 56.4021 54.6849 56.1402 54.1809C55.8783 53.6769 55.5482 53.2433 55.1498 52.8823C54.7514 52.5214 54.2958 52.2352 53.7852 52.0217C53.2746 51.8105 52.7265 51.7048 52.1411 51.7048C51.494 51.6916 50.8887 51.8149 50.3275 52.0702C49.7662 52.3255 49.2776 52.671 48.8616 53.1068C48.4435 53.5426 48.1133 54.0576 47.8712 54.6475C47.6291 55.2396 47.5059 55.8646 47.5059 56.5249C47.5059 57.161 47.6269 57.764 47.8712 58.3385C48.1133 58.9063 48.4479 59.4082 48.8705 59.8374ZM48.6658 54.1281C48.8903 53.6681 49.1698 53.2675 49.5065 52.9329C49.8433 52.5984 50.235 52.3343 50.684 52.1472C51.133 51.9601 51.6238 51.8677 52.1609 51.8677C52.6847 51.8677 53.1667 51.9711 53.6091 52.1758C54.0515 52.3805 54.4411 52.6556 54.7778 52.999C55.1146 53.3423 55.3875 53.7407 55.601 54.1941C55.8123 54.6497 55.9553 55.1317 56.0302 55.6423H48.219C48.2916 55.0943 48.4413 54.5903 48.6658 54.1281Z" fill="#131313"/>
<path d="M58.5326 56.5581H63.991V61.1912H64.6446V51.7358L63.991 51.9427V56.3711H58.5326V51.7358L57.8789 51.9427V61.1912H58.5326V56.5581Z" fill="#131313"/>
<path d="M74.9926 61.0061H73.7777V51.6982L73.1416 51.9051V61.0061H66.6378V51.6982L66.0039 51.9051V61.1932H74.7857L73.5334 62.2562L73.6654 62.3883L76.256 60.2049L76.1173 60.0663L74.9926 61.0061Z" fill="#131313"/>
<path d="M83.9306 59.1177C83.781 59.4412 83.5807 59.734 83.332 59.9959C83.0833 60.2578 82.8082 60.4801 82.511 60.6584C82.2117 60.8388 81.8904 60.9775 81.5492 61.0699C81.2059 61.1646 80.8669 61.2108 80.5302 61.2108C80.0812 61.2108 79.6718 61.1228 79.2954 60.9489C78.9213 60.775 78.5977 60.5263 78.3226 60.2006C78.0497 59.877 77.8384 59.4853 77.6887 59.0231C77.5391 58.5631 77.4642 58.0458 77.4642 57.4736V51.6807L76.8105 51.9052V57.4934C76.8105 58.0524 76.9052 58.5697 77.0901 59.0429C77.2771 59.5161 77.5391 59.9255 77.8736 60.2666C78.2104 60.61 78.6043 60.8807 79.0599 61.0788C79.5155 61.279 80.0041 61.3847 80.528 61.3979C80.8427 61.4023 81.1442 61.3759 81.4348 61.3121C81.58 61.2812 81.7253 61.2416 81.8639 61.1932C82.0796 61.1184 82.2865 61.0259 82.489 60.9137C83.0855 60.5769 83.5653 60.1411 83.9284 59.6063V61.1954H84.5821V51.6851L83.9284 52.002V59.1177H83.9306Z" fill="#131313"/>
<path d="M89.2849 51.8502C88.8734 51.8392 88.5102 51.8876 88.1933 51.9998C87.8741 52.1121 87.6078 52.2705 87.3899 52.4774C87.172 52.6821 87.007 52.9264 86.8969 53.2059C86.7847 53.4855 86.7274 53.776 86.7274 54.0753C86.7274 54.5749 86.8925 55.0195 87.2226 55.4113C87.5528 55.8031 87.9798 56.0672 88.5036 56.2037L85.7744 61.1932H85.9791L88.6885 56.2609C88.7875 56.2719 88.8866 56.2829 88.9878 56.2895C89.0869 56.2961 89.1859 56.2983 89.2849 56.2983H91.3781V61.1932H92.0141V51.8502H89.2849ZM91.3781 56.109H89.2849C88.924 56.109 88.6225 56.0452 88.3781 55.9219C88.136 55.7987 87.9402 55.638 87.7905 55.4443C87.6408 55.2528 87.5308 55.0327 87.4626 54.7906C87.3943 54.5485 87.3613 54.3086 87.3613 54.0709C87.3613 53.8222 87.3943 53.5757 87.4626 53.3336C87.5308 53.0915 87.6408 52.8736 87.7905 52.6799C87.9402 52.4862 88.1382 52.3278 88.3869 52.2023C88.6357 52.0791 88.9416 52.0152 89.3025 52.0152H91.3759V56.109H91.3781Z" fill="#131313"/>
<path d="M41.0225 49.8389C44.5836 50.2637 46.3246 53.0083 46.3356 55.7793C46.1727 55.1234 45.9438 54.5468 45.6467 54.0493C45.3474 53.5519 44.9996 53.1359 44.6012 52.8058C44.2029 52.4757 43.7627 52.2269 43.2829 52.0575C42.8031 51.8902 42.3012 51.8044 41.7796 51.8044C41.1567 51.8044 40.5647 51.9188 40.0034 52.1499C39.4422 52.381 38.958 52.7046 38.5464 53.1205C38.1348 53.5387 37.8113 54.0339 37.5758 54.6062C37.3381 55.1784 37.2324 55.8079 37.2589 56.4946C37.2831 57.1307 37.4195 57.7381 37.6704 58.317C37.9191 58.8959 38.2581 59.3999 38.6895 59.8313C39.1187 60.2604 39.6271 60.6016 40.2125 60.8503C40.798 61.099 41.4341 61.2245 42.1186 61.2245C42.7921 61.2245 43.3995 61.0968 43.941 60.8415C44.117 60.7579 44.2843 60.6632 44.445 60.562C44.8169 60.3133 45.1207 60.0381 45.3694 59.7498C45.4464 59.6596 45.5212 59.5649 45.5939 59.4681C45.6093 59.4483 45.6225 59.4285 45.6357 59.4087C45.6687 59.3624 45.6973 59.314 45.7281 59.2678H45.7303C45.7303 59.2678 47.1588 57.2803 46.4104 54.1264C45.6621 50.9724 43.492 49.7553 40.8904 49.3041C38.2889 48.8529 37.5494 46.905 37.5494 46.905L36.8165 47.222C36.8099 47.2198 37.4613 49.4141 41.0225 49.8389ZM44.7861 59.8511C44.401 60.2318 43.963 60.518 43.4788 60.7116C42.9923 60.9053 42.4883 61.0022 41.9645 61.0022C41.3922 61.0022 40.8552 60.8965 40.3578 60.6852C39.8604 60.4739 39.4224 60.1746 39.0504 59.7872C38.6763 59.4021 38.3813 58.9377 38.1634 58.394C37.9456 57.8526 37.8355 57.2583 37.8355 56.6091C37.8355 55.9488 37.9235 55.3347 38.0974 54.7691C38.2713 54.2034 38.5266 53.7126 38.8633 53.3032C39.2001 52.8938 39.6205 52.5725 40.1245 52.3414C40.6285 52.1103 41.2052 51.9958 41.8522 51.9958C42.4751 51.9958 43.0474 52.1367 43.5712 52.4162C44.095 52.6957 44.5462 53.0523 44.927 53.4815C45.3077 53.9107 45.6027 54.3883 45.814 54.9099C46.0253 55.4337 46.1243 55.9312 46.1133 56.4044C46.0891 57.1637 45.957 57.835 45.7215 58.4138C45.4838 58.9927 45.1735 59.4725 44.7861 59.8511Z" fill="#131313"/>
<path d="M26.4253 75.198V66.1719L25.7716 66.3766L20.4453 75.5898H20.6698L25.7716 66.7331V75.5898H26.4253L31.5271 66.7331V75.5898H32.1808V66.1719L31.5271 66.3766L26.4253 75.198Z" fill="#131313"/>
<path d="M41.2527 67.5653C40.8235 67.1361 40.3129 66.7972 39.7208 66.5463C39.1288 66.2976 38.4971 66.1655 37.8236 66.1545C37.1501 66.1413 36.5162 66.2646 35.9176 66.5199C35.3189 66.7752 34.8017 67.1207 34.3659 67.5565C33.9301 67.9923 33.5846 68.5073 33.3293 69.0972C33.0739 69.6893 32.9463 70.3143 32.9463 70.9746C32.9463 71.6107 33.0739 72.2138 33.3293 72.7882C33.5846 73.3605 33.9301 73.8601 34.3659 74.2827C34.8017 74.7052 35.3189 75.042 35.9176 75.2907C36.5162 75.5394 37.1501 75.6583 37.8236 75.645C38.4839 75.645 39.1068 75.5196 39.6922 75.2709C40.2777 75.0222 40.7883 74.6876 41.2241 74.2717C41.6599 73.8535 42.0054 73.3627 42.2607 72.7948C42.5161 72.2292 42.6437 71.6217 42.6437 70.9724C42.6437 70.2989 42.5182 69.6717 42.2695 69.0862C42.0208 68.5029 41.6819 67.9945 41.2527 67.5653ZM41.6731 72.665C41.4728 73.2196 41.1933 73.706 40.8323 74.122C40.4714 74.5402 40.0356 74.8703 39.5249 75.1124C39.0143 75.3545 38.4465 75.4778 37.8236 75.4778C37.2007 75.4778 36.6307 75.3589 36.1135 75.1234C35.5962 74.8879 35.1516 74.5622 34.7775 74.1528C34.4033 73.7412 34.115 73.2658 33.9081 72.7222C33.7034 72.1807 33.6 71.6041 33.6 70.9944C33.6 70.3341 33.699 69.7201 33.8993 69.1544C34.0974 68.5866 34.3857 68.0958 34.7599 67.6776C35.134 67.2594 35.5786 66.9293 36.0959 66.6872C36.6131 66.445 37.1897 66.3218 37.8236 66.3218C38.4597 66.3218 39.0341 66.4495 39.5514 66.7048C40.0686 66.9601 40.511 67.299 40.8785 67.7238C41.2461 68.1464 41.5256 68.6328 41.7193 69.1808C41.913 69.7289 42.0032 70.3011 41.99 70.8998C41.9768 71.5227 41.8712 72.1125 41.6731 72.665Z" fill="#131313"/>
<path d="M51.5676 67.5827C51.1626 67.1535 50.685 66.8146 50.137 66.5637C49.5889 66.315 49.0035 66.1895 48.3806 66.1895C47.5949 66.1895 46.8796 66.3634 46.2325 66.7133C45.5854 67.0633 45.0418 67.5673 44.606 68.2276V65.9672L45.5964 65.1264L45.4666 64.9966L42.8496 67.2019L42.9795 67.3318L43.9501 66.5285V80.2624H44.6038V73.6662C45.0396 74.3022 45.5854 74.7688 46.2391 75.0682C46.8928 75.3675 47.6059 75.5172 48.3784 75.5172C48.9881 75.5172 49.5647 75.4027 50.1062 75.1716C50.6476 74.9405 51.1252 74.6214 51.5346 74.2098C51.9462 73.7982 52.2697 73.3184 52.5052 72.7704C52.7407 72.2223 52.8596 71.6303 52.8596 70.9942C52.8596 70.3207 52.7451 69.6934 52.514 69.1058C52.2895 68.5203 51.9726 68.0119 51.5676 67.5827ZM51.9043 72.6185C51.6997 73.1533 51.4179 73.6221 51.0636 74.0205C50.7092 74.4189 50.2976 74.738 49.831 74.9735C49.3644 75.2112 48.8692 75.3279 48.3454 75.3279C47.9712 75.3279 47.6015 75.2883 47.2339 75.2068C46.8664 75.1254 46.5164 75.0021 46.1885 74.8327C45.8583 74.6654 45.559 74.4409 45.2905 74.1592C45.022 73.8796 44.7953 73.5451 44.6082 73.1599V68.7316C45.0066 67.9349 45.5392 67.3428 46.2061 66.9554C46.873 66.5703 47.5993 66.3766 48.3828 66.3766C48.9066 66.3766 49.3975 66.502 49.8597 66.7508C50.3197 66.9995 50.7246 67.334 51.0746 67.75C51.4223 68.1682 51.6997 68.6502 51.9065 69.1982C52.1112 69.7463 52.2147 70.3185 52.2147 70.9172C52.2125 71.5158 52.109 72.0837 51.9043 72.6185Z" fill="#131313"/>
<path d="M54.3229 70.208H62.7702C62.6954 69.6226 62.5281 69.0768 62.2662 68.5727C62.0043 68.0687 61.6741 67.6351 61.2758 67.2742C60.8774 66.9132 60.4218 66.6271 59.9112 66.4136C59.4005 66.2023 58.8525 66.0967 58.2671 66.0967C57.62 66.0835 57.0147 66.2067 56.4535 66.462C55.8922 66.7173 55.4036 67.0629 54.9876 67.4987C54.5694 67.9345 54.2393 68.4495 53.9972 69.0393C53.7551 69.6314 53.6318 70.2565 53.6318 70.9168C53.6318 71.5528 53.7529 72.1559 53.9972 72.7304C54.2393 73.3026 54.5738 73.8044 54.9964 74.2336C55.419 74.6628 55.9142 75.0039 56.4821 75.2526C57.0477 75.5013 57.6552 75.6268 58.3045 75.6268C58.8283 75.6136 59.3257 75.5234 59.7989 75.3561C60.2721 75.1888 60.7057 74.9533 61.0975 74.6562C61.4892 74.3569 61.8326 74.0025 62.1253 73.5909C62.4181 73.1793 62.6337 72.7303 62.7702 72.2461L62.0967 72.4332C61.8964 72.9196 61.6785 73.3488 61.443 73.723C61.2053 74.0971 60.939 74.4119 60.6397 74.6672C60.3404 74.9225 59.997 75.1162 59.6118 75.246C59.2267 75.3759 58.7887 75.4419 58.3045 75.4419C57.7058 75.4419 57.1622 75.3231 56.6692 75.0876C56.1761 74.8521 55.7558 74.5263 55.408 74.117C55.0581 73.7054 54.7851 73.23 54.5848 72.6885C54.3846 72.1471 54.2855 71.5704 54.2855 70.9608C54.2855 70.8243 54.2877 70.6967 54.2943 70.5778C54.3009 70.4546 54.3119 70.3335 54.3229 70.208ZM54.7917 68.5265C55.0162 68.0665 55.2958 67.6659 55.6325 67.3314C55.9693 66.9946 56.361 66.7327 56.81 66.5457C57.259 66.3586 57.7498 66.2661 58.2869 66.2661C58.8107 66.2661 59.2927 66.3696 59.7351 66.5743C60.1775 66.779 60.567 67.0541 60.9038 67.3974C61.2405 67.7408 61.5135 68.1392 61.727 68.5926C61.9382 69.0482 62.0813 69.5302 62.1561 70.0408H54.3427C54.4176 69.4927 54.5672 68.9865 54.7917 68.5265Z" fill="#131313"/>
<path d="M70.8097 73.5163C70.6468 73.8398 70.4443 74.1303 70.2022 74.3856C69.9601 74.6409 69.6894 74.8588 69.3901 75.0393C69.0907 75.2198 68.7738 75.3607 68.4371 75.4597C68.1003 75.5587 67.7636 75.6094 67.429 75.6094C66.98 75.6094 66.5728 75.5213 66.2053 75.3475C65.8377 75.1736 65.5208 74.9249 65.2523 74.5991C64.9838 74.2756 64.7769 73.886 64.6272 73.4304C64.4775 72.9748 64.4027 72.4686 64.4027 71.9074V66.1519L63.749 66.4138V71.9074C63.749 72.4686 63.8415 72.9814 64.0285 73.448C64.2156 73.9146 64.4731 74.3196 64.8033 74.663C65.1334 75.0063 65.523 75.277 65.972 75.4751C66.421 75.6754 66.9074 75.7745 67.429 75.7745C68.1267 75.7877 68.7738 75.627 69.3725 75.299C69.9711 74.9689 70.4509 74.5353 70.8119 74.0005V75.5697L71.4656 75.5874V66.1497L70.8119 66.4116V73.5163H70.8097Z" fill="#131313"/>
<path d="M69.0621 65.0649H66.3594V65.2652H69.0621V65.0649Z" fill="#131313"/>
<path d="M28.5577 83.157H28.254L27.466 84.154H27.1029V83.157H26.8476V84.154H26.4844L25.6965 83.157H25.3905L26.2819 84.2685L25.3047 85.3821H25.6194L26.4866 84.3829H26.8476V85.3821H27.1029V84.3829H27.4638L28.331 85.3821H28.6435L27.6685 84.2685L28.5577 83.157Z" fill="#131313"/>
<path d="M30.0851 84.92V83.157H29.832V85.3821H30.0323L31.4827 83.6148V85.3821H31.7381V83.157H31.5378L30.0851 84.92Z" fill="#131313"/>
<path d="M33.1693 84.6624C33.1341 85.0542 33.0416 85.1973 32.8193 85.1973V85.4284C33.2155 85.4284 33.3762 85.2127 33.4334 84.647L33.5611 83.3947H34.6417V85.3799H34.8948V83.157H33.3256L33.1693 84.6624Z" fill="#131313"/>
<path d="M37.0687 83.1101C36.4459 83.1101 35.9814 83.6031 35.9814 84.2722C35.9814 84.9325 36.4481 85.4277 37.0687 85.4277C37.7048 85.4277 38.1626 84.9501 38.1626 84.2722C38.1626 83.5855 37.7048 83.1101 37.0687 83.1101ZM37.0687 85.1878C36.5889 85.1878 36.2368 84.796 36.2368 84.27C36.2368 83.7396 36.5867 83.3522 37.0687 83.3522C37.5683 83.3522 37.9073 83.7264 37.9073 84.27C37.9073 84.8093 37.5639 85.1878 37.0687 85.1878Z" fill="#131313"/>
<path d="M39.4897 84.92V83.157H39.2344V85.3821H39.4347L40.8873 83.6148V85.3821H41.1404V83.157H40.9401L39.4897 84.92Z" fill="#131313"/>
<path d="M45.5402 83.157H45.2343L44.4463 84.154H44.0854V83.157H43.8301V85.3821H44.0854V84.3829H44.4441L45.3113 85.3821H45.6261L44.651 84.2685L45.5402 83.157Z" fill="#131313"/>
<path d="M47.4193 83.1101C46.7964 83.1101 46.332 83.6031 46.332 84.2722C46.332 84.9325 46.7986 85.4277 47.4193 85.4277C48.0554 85.4277 48.5132 84.9501 48.5132 84.2722C48.511 83.5855 48.0554 83.1101 47.4193 83.1101ZM47.4193 85.1878C46.9395 85.1878 46.5873 84.796 46.5873 84.27C46.5873 83.7396 46.9373 83.3522 47.4193 83.3522C47.9189 83.3522 48.2579 83.7264 48.2579 84.27C48.2579 84.8093 47.9145 85.1878 47.4193 85.1878Z" fill="#131313"/>
<path d="M50.7167 85.1026L49.9024 83.157H49.5811V85.3821H49.8364V83.5906L50.5979 85.3821H50.8312L51.5905 83.595V85.3821H51.8436V83.157H51.5267L50.7167 85.1026Z" fill="#131313"/>
<path d="M53.0303 85.3821H53.2856V83.3969H54.6832V85.3821H54.9363V83.157H53.0303V85.3821Z" fill="#131313"/>
<path d="M56.3714 84.6624C56.3362 85.0542 56.2438 85.1973 56.0215 85.1973V85.4284C56.4177 85.4284 56.5783 85.2127 56.6356 84.647L56.7632 83.3947H57.8439V85.3799H58.097V83.157H56.5277L56.3714 84.6624Z" fill="#131313"/>
<path d="M59.293 85.3821H60.783V85.14H59.5461V84.3895H60.7324V84.1452H59.5461V83.3969H60.783V83.157H59.293V85.3821Z" fill="#131313"/>
<path d="M63.6826 83.157H63.3788L62.5909 84.154H62.2277V83.157H61.9746V85.3821H62.2277V84.3829H62.5865L63.4537 85.3821H63.7684L62.7934 84.2685L63.6826 83.157Z" fill="#131313"/>
<path d="M65.5572 85.1881C65.0796 85.1881 64.7319 84.7963 64.7319 84.2703C64.7319 83.7398 65.0774 83.3525 65.5572 83.3525C65.9138 83.3525 66.1999 83.5593 66.3254 83.8807H66.6027C66.4442 83.4075 66.0524 83.1125 65.5638 83.1125C64.9388 83.1125 64.4766 83.6056 64.4766 84.2747C64.4766 84.9349 64.941 85.4302 65.5638 85.4302C66.0568 85.4302 66.4442 85.1352 66.6027 84.662H66.3298C66.1977 84.9834 65.9116 85.1881 65.5572 85.1881Z" fill="#131313"/>
<path d="M40.5224 82.2823L39.8877 82.8132L40.0501 83.0074L40.6848 82.4764L40.5224 82.2823Z" fill="#131313"/>
<path d="M58.5524 18.0962C57.584 17.1278 56.4527 16.4037 55.1872 15.9415V14.6495C55.1872 12.1911 54.2253 9.87564 52.4778 8.12808C51.3839 7.03421 50.0369 6.22866 48.5843 5.79947C47.8558 5.57938 47.092 5.45393 46.3107 5.42311C46.194 5.41871 46.0752 5.4165 45.9563 5.4165C43.4979 5.4165 41.1825 6.38052 39.4349 8.12808C38.6844 8.87641 38.0747 9.73479 37.6213 10.6768C36.019 11.0818 34.5444 11.9225 33.3559 13.1111C31.6083 14.8608 30.6465 17.1762 30.6465 19.6325V32.1625H36.7211V42.1285H55.185V37.1455H61.2618V24.6155C61.2618 22.1614 60.3 19.846 58.5524 18.0962ZM61.0241 24.6177V36.91H55.185V16.1968C56.3845 16.6502 57.4607 17.3457 58.3829 18.2657C60.0865 19.967 61.0241 22.223 61.0241 24.6177ZM31.4146 31.9248V19.6325C31.4146 17.1938 32.372 14.8916 34.1086 13.1551C35.0726 12.1888 36.2039 11.4669 37.4717 11.0091C36.9742 12.1624 36.7211 13.3862 36.7211 14.6495V31.9248H31.4146ZM37.4915 32.1625H42.798V37.1455H54.9495V41.8908H37.4915V32.1625ZM48.3378 16.5798C48.6943 17.5592 48.8726 18.587 48.8726 19.6347V31.927H43.5661V24.6177C43.5661 22.179 44.5235 19.8768 46.2601 18.1402C46.8763 17.524 47.574 17.0001 48.3378 16.5798ZM43.5661 32.1625H49.1103V19.6325C49.1103 18.5452 48.921 17.4777 48.5469 16.4631C49.0553 16.199 49.5879 15.9855 50.1272 15.8248C50.7412 15.6884 51.3817 15.6201 52.031 15.6201C52.1498 15.6201 52.2687 15.6223 52.3853 15.6267C53.2591 15.6598 54.1197 15.8226 54.9495 16.1088V36.9078H43.5661V32.1625ZM52.031 15.3824C50.7786 15.3824 49.5615 15.6311 48.417 16.122C47.9526 14.9973 47.2725 13.9848 46.3987 13.1111C45.3093 12.0194 43.9623 11.2138 42.5074 10.7824C41.7789 10.5623 41.0152 10.4369 40.2338 10.4061C40.1172 10.4017 39.9983 10.3995 39.8773 10.3995C39.4173 10.3995 38.9507 10.4347 38.4863 10.5051C38.9265 9.64235 39.4987 8.8588 40.1854 8.17211C41.2727 7.08483 42.6087 6.28588 44.0503 5.8589C44.7788 5.69823 45.5404 5.63 46.3107 5.66081C48.5645 5.74885 50.695 6.68426 52.3061 8.29756C54.0096 9.9989 54.9495 12.2549 54.9495 14.6495V15.8622L54.9098 15.849C54.8284 15.8204 54.7426 15.7918 54.6589 15.7676C53.9304 15.5475 53.1667 15.4221 52.3875 15.3912C52.2687 15.3846 52.1476 15.3824 52.031 15.3824ZM46.2293 13.2805C47.081 14.1323 47.7435 15.1227 48.1969 16.221C47.1977 16.681 46.2931 17.3105 45.5095 18.0962C43.7598 19.846 42.798 22.1614 42.798 24.6177V31.927H37.4915V14.6517C37.4915 13.2937 37.782 11.9886 38.3542 10.7714C38.8605 10.6834 39.3711 10.6394 39.8773 10.6394C39.9961 10.6394 40.1128 10.6416 40.2317 10.646C42.4876 10.7318 44.6182 11.6672 46.2293 13.2805Z" fill="#131313"/>
</g>
<defs>
<clipPath id="clip0_5538_2189">
<rect width="92" height="92" fill="white"/>
</clipPath>
</defs>
</svg>
