<svg width="240" height="240" viewBox="0 0 240 240" fill="none" xmlns="http://www.w3.org/2000/svg">
<g clip-path="url(#clip0_5476_721)">
<path d="M22.4613 138.74C21.4048 137.621 20.1589 136.736 18.7292 136.082C17.2996 135.433 15.7723 135.106 14.1474 135.106C12.0976 135.106 10.2316 135.559 8.54357 136.472C6.85553 137.385 5.43735 138.7 4.3005 140.423V134.526L6.88424 132.333L6.54548 131.994L-0.275574 137.741L0.0631846 138.08L2.59524 135.984V171.812H4.3005V154.604C5.43735 156.264 6.86127 157.481 8.56653 158.262C10.2718 159.043 12.1321 159.433 14.1474 159.433C15.7378 159.433 17.2421 159.135 18.6546 158.532C20.067 157.929 21.3129 157.096 22.3809 156.023C23.4546 154.949 24.2986 153.697 24.9129 152.268C25.5273 150.838 25.8373 149.293 25.8373 147.634C25.8373 145.877 25.5388 144.241 24.9359 142.708C24.3503 141.186 23.5177 139.866 22.4613 138.74ZM23.3397 151.883C22.8058 153.278 22.0708 154.501 21.1464 155.54C20.222 156.58 19.1484 157.412 17.9311 158.026C16.7139 158.647 15.422 158.951 14.0555 158.951C13.0795 158.951 12.1149 158.847 11.156 158.635C10.1972 158.423 9.28424 158.101 8.42873 157.659C7.56749 157.223 6.78663 156.637 6.08615 155.902C5.38567 155.173 4.79428 154.3 4.30625 153.295V141.743C5.34548 139.665 6.73496 138.12 8.47467 137.11C10.2144 136.105 12.1091 135.6 14.1531 135.6C15.5196 135.6 16.8 135.927 18.0058 136.576C19.2058 137.225 20.2622 138.097 21.1751 139.182C22.0823 140.273 22.8058 141.531 23.3455 142.96C23.8795 144.39 24.1493 145.883 24.1493 147.445C24.1436 149.006 23.8794 150.482 23.3397 151.883Z" fill="white"/>
<path d="M29.6498 145.59H51.6862C51.4909 144.063 51.0546 142.639 50.3713 141.324C49.6881 140.009 48.8268 138.878 47.7876 137.937C46.7484 136.995 45.5598 136.249 44.2278 135.692C42.8957 135.14 41.4661 134.865 39.9388 134.865C38.2507 134.83 36.6718 135.152 35.2077 135.818C33.7436 136.484 32.4689 137.385 31.3838 138.522C30.2929 139.659 29.4316 141.003 28.8 142.541C28.1685 144.086 27.8469 145.716 27.8469 147.439C27.8469 149.098 28.1627 150.672 28.8 152.17C29.4316 153.663 30.3043 154.972 31.4067 156.092C32.5091 157.211 33.801 158.101 35.2823 158.75C36.7637 159.399 38.3426 159.726 40.0364 159.726C41.4029 159.692 42.7005 159.456 43.935 159.02C45.1694 158.583 46.3005 157.969 47.3225 157.194C48.3445 156.413 49.2402 155.489 50.0039 154.415C50.7675 153.341 51.3302 152.17 51.6862 150.907L49.9292 151.395C49.4067 152.664 48.8383 153.783 48.224 154.76C47.6039 155.736 46.9091 156.557 46.1283 157.223C45.3474 157.889 44.4517 158.394 43.4469 158.733C42.4364 159.072 41.2996 159.244 40.0364 159.244C38.4747 159.244 37.0565 158.934 35.7704 158.319C34.4842 157.705 33.3876 156.855 32.4804 155.787C31.5675 154.714 30.8555 153.473 30.333 152.061C29.8106 150.649 29.5522 149.144 29.5522 147.554C29.5522 147.198 29.5579 146.865 29.5752 146.555C29.5981 146.233 29.6211 145.917 29.6498 145.59ZM30.8728 141.204C31.4584 140.004 32.1876 138.959 33.0661 138.086C33.9445 137.207 34.9665 136.524 36.1378 136.036C37.3091 135.548 38.5895 135.307 39.9905 135.307C41.357 135.307 42.6144 135.577 43.7685 136.111C44.9225 136.645 45.9388 137.362 46.8173 138.258C47.6957 139.154 48.4077 140.193 48.9646 141.376C49.5158 142.564 49.889 143.822 50.0842 145.154H29.7072C29.8967 143.724 30.2871 142.409 30.8728 141.204Z" fill="white"/>
<path d="M56.5263 157.51C57.3244 158.337 58.266 158.991 59.3512 159.462C60.4421 159.933 61.5675 160.168 62.7387 160.168C63.91 160.168 65.0354 159.973 66.1263 159.583C67.2172 159.192 68.1761 158.658 69.0029 157.975C69.8296 157.292 70.4957 156.505 71.0009 155.609C71.5062 154.714 71.7588 153.749 71.7588 152.71C71.7588 151.671 71.5464 150.712 71.1273 149.833C70.7024 148.955 70.134 148.174 69.422 147.491C68.7043 146.807 67.889 146.239 66.9588 145.785C66.0344 145.332 65.0641 145.039 64.0593 144.907C64.7426 144.775 65.3914 144.568 66.0115 144.275C66.6258 143.983 67.1713 143.627 67.6421 143.202C68.1129 142.777 68.4861 142.306 68.7617 141.789C69.0373 141.273 69.1751 140.716 69.1751 140.13C69.1751 139.223 68.9971 138.43 68.6411 137.764C68.2852 137.098 67.8029 136.547 67.2057 136.105C66.6029 135.669 65.9139 135.341 65.133 135.129C64.3521 134.917 63.5541 134.813 62.7445 134.813C62.0957 134.813 61.4584 134.911 60.844 135.106C60.2239 135.301 59.667 135.571 59.1617 135.91C58.6564 136.249 58.2258 136.656 57.8698 137.127C57.5139 137.598 57.2383 138.097 57.0431 138.614L57.9215 138.758C58.2143 137.684 58.8 136.84 59.6785 136.226C60.5569 135.611 61.6306 135.301 62.8938 135.301C64.4555 135.336 65.6612 135.812 66.5282 136.737C67.3895 137.661 67.7856 138.792 67.7225 140.124C67.688 141.491 67.2172 142.605 66.31 143.466C65.3971 144.327 64.1799 144.758 62.6526 144.758V145.051C63.7895 145.051 64.8115 145.269 65.7244 145.711C66.6316 146.147 67.4124 146.727 68.067 147.439C68.7158 148.157 69.2153 148.972 69.5541 149.902C69.8928 150.827 70.0651 151.763 70.0651 152.704C70.0306 153.715 69.8469 154.639 69.5024 155.483C69.1636 156.327 68.6756 157.062 68.0383 157.676C67.4067 158.296 66.6488 158.779 65.7703 159.141C64.8919 159.496 63.8871 159.674 62.7502 159.674C61.6478 159.674 60.6431 159.405 59.7531 158.871C58.8574 158.337 58.1052 157.636 57.4852 156.775C56.8651 155.914 56.4229 154.938 56.1474 153.852C55.8718 152.762 55.7799 151.682 55.8775 150.608L54.2698 151.24C54.1378 152.44 54.2871 153.583 54.7062 154.651C55.1196 155.73 55.7282 156.683 56.5263 157.51Z" fill="white"/>
<path d="M76.9378 157.217C77.8162 158.113 78.844 158.819 80.0325 159.336C81.221 159.858 82.4957 160.134 83.8564 160.162C85.711 160.197 87.4162 159.772 88.9722 158.893C90.5339 158.015 91.7856 156.878 92.7272 155.483V159.628L94.4325 159.674V134.813L92.7272 135.64V154.214C92.3368 155.058 91.8143 155.822 91.1655 156.505C90.5167 157.188 89.799 157.762 89.0181 158.233C88.2373 158.704 87.399 159.06 86.5091 159.307C85.6134 159.548 84.7292 159.674 83.8507 159.674C82.6794 159.674 81.6057 159.445 80.6354 158.991C79.6593 158.537 78.8153 157.889 78.1033 157.039C77.3856 156.195 76.8344 155.173 76.444 153.967C76.0536 152.767 75.8583 151.418 75.8583 149.919V134.807L74.1531 135.393V149.971C74.1531 151.435 74.3942 152.784 74.8823 154.019C75.376 155.259 76.0593 156.327 76.9378 157.217Z" fill="white"/>
<path d="M127.487 156.097C128.59 157.217 129.881 158.107 131.363 158.756C132.844 159.405 134.423 159.732 136.117 159.732C137.483 159.697 138.781 159.462 140.015 159.026C141.25 158.589 142.381 157.975 143.403 157.2C144.425 156.419 145.321 155.495 146.084 154.421C146.848 153.347 147.411 152.176 147.767 150.913L146.01 151.401C145.487 152.67 144.919 153.789 144.304 154.765C143.684 155.741 142.99 156.563 142.209 157.229C141.428 157.895 140.532 158.4 139.527 158.739C138.517 159.077 137.38 159.25 136.117 159.25C134.555 159.25 133.137 158.94 131.851 158.325C130.565 157.711 129.468 156.861 128.561 155.793C127.648 154.719 126.936 153.479 126.414 152.067C125.891 150.654 125.633 149.15 125.633 147.56C125.633 147.204 125.638 146.871 125.656 146.561C125.673 146.251 125.696 145.935 125.73 145.607H147.767C147.571 144.08 147.135 142.656 146.452 141.341C145.769 140.027 144.907 138.896 143.868 137.954C142.829 137.012 141.64 136.266 140.308 135.709C138.976 135.158 137.547 134.882 136.019 134.882C134.331 134.848 132.752 135.169 131.288 135.835C129.824 136.501 128.549 137.403 127.464 138.54C126.373 139.676 125.512 141.02 124.88 142.559C124.249 144.103 123.927 145.734 123.927 147.456C123.927 149.116 124.243 150.689 124.88 152.187C125.512 153.669 126.385 154.978 127.487 156.097ZM126.953 141.204C127.539 140.004 128.268 138.959 129.147 138.086C130.025 137.213 131.047 136.524 132.218 136.036C133.39 135.548 134.67 135.307 136.071 135.307C137.437 135.307 138.695 135.577 139.849 136.111C141.003 136.645 142.019 137.363 142.898 138.258C143.776 139.154 144.488 140.193 145.045 141.376C145.596 142.564 145.969 143.822 146.165 145.154H125.788C125.977 143.724 126.368 142.409 126.953 141.204Z" fill="white"/>
<path d="M152.693 147.542H166.932V159.628H168.637V134.962L166.932 135.502V147.054H152.693V134.962L150.988 135.502V159.628H152.693V147.542Z" fill="white"/>
<path d="M195.629 159.146H192.459V134.865L190.8 135.404V159.146H173.834V134.865L172.18 135.404V159.634H195.089L191.822 162.407L192.167 162.752L198.924 157.056L198.563 156.694L195.629 159.146Z" fill="white"/>
<path d="M218.945 154.22C218.555 155.064 218.033 155.827 217.384 156.511C216.735 157.194 216.017 157.774 215.242 158.239C214.461 158.71 213.623 159.071 212.733 159.313C211.837 159.56 210.953 159.68 210.075 159.68C208.903 159.68 207.835 159.45 206.854 158.997C205.878 158.543 205.034 157.894 204.316 157.045C203.604 156.201 203.053 155.179 202.662 153.973C202.272 152.773 202.077 151.424 202.077 149.931V134.819L200.371 135.404V149.982C200.371 151.441 200.618 152.79 201.101 154.025C201.589 155.259 202.272 156.327 203.145 157.217C204.023 158.113 205.051 158.819 206.239 159.336C207.428 159.858 208.702 160.134 210.069 160.168C210.89 160.18 211.677 160.111 212.434 159.944C212.813 159.864 213.192 159.76 213.554 159.634C214.117 159.439 214.656 159.198 215.185 158.905C216.741 158.027 217.992 156.89 218.94 155.494V159.64H220.645V134.83L218.94 135.657V154.22H218.945Z" fill="white"/>
<path d="M232.915 135.261C231.841 135.232 230.894 135.359 230.067 135.652C229.234 135.944 228.54 136.358 227.971 136.897C227.403 137.431 226.972 138.069 226.685 138.798C226.392 139.527 226.243 140.285 226.243 141.066C226.243 142.369 226.674 143.529 227.535 144.551C228.396 145.573 229.51 146.262 230.877 146.618L223.757 159.634H224.291L231.359 146.767C231.617 146.796 231.876 146.825 232.14 146.842C232.398 146.859 232.656 146.865 232.915 146.865H238.375V159.634H240.034V135.261H232.915ZM238.375 146.371H232.915C231.973 146.371 231.187 146.205 230.549 145.883C229.918 145.562 229.407 145.142 229.016 144.637C228.626 144.138 228.339 143.563 228.161 142.932C227.983 142.3 227.897 141.674 227.897 141.054C227.897 140.406 227.983 139.763 228.161 139.131C228.339 138.499 228.626 137.931 229.016 137.426C229.407 136.92 229.923 136.507 230.572 136.18C231.221 135.858 232.019 135.692 232.961 135.692H238.369V146.371H238.375Z" fill="white"/>
<path d="M107.012 130.013C116.302 131.121 120.844 138.281 120.873 145.51C120.448 143.799 119.851 142.295 119.076 140.997C118.295 139.699 117.388 138.614 116.348 137.753C115.309 136.892 114.161 136.243 112.909 135.801C111.657 135.364 110.348 135.14 108.988 135.14C107.363 135.14 105.818 135.439 104.354 136.042C102.89 136.645 101.627 137.489 100.553 138.574C99.4794 139.665 98.6354 140.957 98.021 142.45C97.4009 143.942 97.1253 145.585 97.1942 147.376C97.2574 149.035 97.6134 150.62 98.2679 152.13C98.9167 153.64 99.8009 154.955 100.926 156.08C102.046 157.2 103.372 158.09 104.9 158.739C106.427 159.387 108.086 159.715 109.872 159.715C111.629 159.715 113.213 159.382 114.626 158.716C115.085 158.497 115.522 158.251 115.941 157.986C116.911 157.338 117.703 156.62 118.352 155.868C118.553 155.632 118.748 155.385 118.938 155.133C118.978 155.081 119.012 155.029 119.047 154.978C119.133 154.857 119.208 154.731 119.288 154.61H119.294C119.294 154.61 123.02 149.426 121.068 141.198C119.116 132.97 113.455 129.795 106.668 128.618C99.8813 127.441 97.9521 122.36 97.9521 122.36L96.0402 123.186C96.0229 123.181 97.7225 128.905 107.012 130.013ZM116.831 156.132C115.826 157.125 114.683 157.872 113.42 158.377C112.151 158.882 110.836 159.135 109.47 159.135C107.977 159.135 106.576 158.859 105.278 158.308C103.981 157.757 102.838 156.976 101.868 155.965C100.892 154.961 100.122 153.749 99.5541 152.331C98.9856 150.918 98.6985 149.368 98.6985 147.674C98.6985 145.952 98.9282 144.35 99.3818 142.874C99.8354 141.399 100.501 140.118 101.38 139.051C102.258 137.983 103.355 137.144 104.67 136.541C105.985 135.939 107.489 135.64 109.177 135.64C110.802 135.64 112.295 136.007 113.661 136.737C115.028 137.466 116.205 138.396 117.198 139.516C118.191 140.635 118.961 141.881 119.512 143.242C120.063 144.608 120.322 145.906 120.293 147.14C120.23 149.121 119.885 150.873 119.271 152.383C118.651 153.893 117.841 155.144 116.831 156.132Z" fill="white"/>
<path d="M68.934 196.168V172.622L67.2287 173.156L53.334 197.19H53.9196L67.2287 174.086V197.19H68.934L82.2431 174.086V197.19H83.9483V172.622L82.2431 173.156L68.934 196.168Z" fill="white"/>
<path d="M107.615 176.256C106.496 175.137 105.164 174.253 103.619 173.598C102.075 172.949 100.427 172.605 98.6699 172.576C96.9129 172.542 95.2593 172.863 93.6976 173.529C92.1359 174.195 90.7866 175.097 89.6498 176.233C88.5129 177.37 87.6115 178.714 86.9454 180.253C86.2794 181.797 85.9464 183.428 85.9464 185.15C85.9464 186.809 86.2794 188.383 86.9454 189.881C87.6115 191.374 88.5129 192.677 89.6498 193.78C90.7866 194.882 92.1359 195.761 93.6976 196.409C95.2593 197.058 96.9129 197.368 98.6699 197.334C100.392 197.334 102.017 197.007 103.544 196.358C105.072 195.709 106.404 194.836 107.541 193.751C108.677 192.66 109.579 191.38 110.245 189.898C110.911 188.423 111.244 186.838 111.244 185.144C111.244 183.387 110.917 181.751 110.268 180.224C109.619 178.702 108.735 177.376 107.615 176.256ZM108.712 189.56C108.189 191.007 107.46 192.276 106.519 193.361C105.577 194.452 104.44 195.313 103.108 195.944C101.776 196.576 100.295 196.898 98.6699 196.898C97.045 196.898 95.5579 196.587 94.2086 195.973C92.8593 195.359 91.6995 194.509 90.7234 193.441C89.7474 192.367 88.9952 191.127 88.4555 189.709C87.9215 188.297 87.6517 186.792 87.6517 185.202C87.6517 183.479 87.91 181.877 88.4325 180.402C88.9493 178.92 89.7014 177.64 90.6775 176.549C91.6536 175.458 92.8134 174.597 94.1627 173.965C95.512 173.334 97.0163 173.012 98.6699 173.012C100.329 173.012 101.828 173.345 103.177 174.011C104.526 174.677 105.68 175.562 106.639 176.67C107.598 177.772 108.327 179.041 108.833 180.471C109.338 181.9 109.573 183.393 109.539 184.955C109.504 186.58 109.229 188.119 108.712 189.56Z" fill="white"/>
<path d="M134.521 176.302C133.464 175.183 132.218 174.298 130.789 173.644C129.359 172.995 127.832 172.668 126.207 172.668C124.157 172.668 122.291 173.121 120.603 174.034C118.915 174.947 117.497 176.262 116.36 177.985V172.088L118.944 169.895L118.605 169.556L111.778 175.309L112.117 175.648L114.649 173.552V209.38H116.354V192.172C117.491 193.832 118.915 195.049 120.62 195.83C122.325 196.61 124.186 197.001 126.201 197.001C127.791 197.001 129.296 196.702 130.708 196.099C132.121 195.497 133.367 194.664 134.435 193.59C135.508 192.517 136.352 191.265 136.967 189.835C137.581 188.406 137.891 186.861 137.891 185.202C137.891 183.445 137.592 181.809 136.99 180.276C136.404 178.748 135.577 177.422 134.521 176.302ZM135.399 189.439C134.865 190.834 134.13 192.057 133.206 193.097C132.281 194.136 131.208 194.968 129.991 195.583C128.773 196.203 127.481 196.507 126.115 196.507C125.139 196.507 124.174 196.404 123.215 196.191C122.257 195.979 121.344 195.657 120.488 195.215C119.627 194.779 118.846 194.193 118.146 193.458C117.445 192.729 116.854 191.856 116.366 190.852V179.299C117.405 177.221 118.794 175.676 120.534 174.666C122.274 173.661 124.169 173.156 126.213 173.156C127.579 173.156 128.859 173.483 130.065 174.132C131.265 174.781 132.322 175.654 133.235 176.739C134.142 177.83 134.865 179.087 135.405 180.517C135.939 181.946 136.209 183.439 136.209 185.001C136.203 186.563 135.933 188.044 135.399 189.439Z" fill="white"/>
<path d="M141.709 183.152H163.745C163.55 181.625 163.114 180.201 162.431 178.886C161.747 177.571 160.886 176.44 159.847 175.498C158.808 174.557 157.619 173.81 156.287 173.253C154.955 172.702 153.525 172.427 151.998 172.427C150.31 172.392 148.731 172.714 147.267 173.38C145.803 174.046 144.528 174.947 143.443 176.084C142.352 177.221 141.491 178.564 140.859 180.103C140.228 181.648 139.906 183.278 139.906 185.001C139.906 186.66 140.222 188.233 140.859 189.732C141.491 191.225 142.364 192.534 143.466 193.653C144.568 194.773 145.86 195.663 147.342 196.312C148.817 196.961 150.402 197.288 152.096 197.288C153.462 197.253 154.76 197.018 155.994 196.582C157.229 196.145 158.36 195.531 159.382 194.756C160.404 193.975 161.3 193.05 162.063 191.977C162.827 190.903 163.389 189.732 163.745 188.469L161.989 188.957C161.466 190.226 160.898 191.345 160.283 192.321C159.663 193.297 158.968 194.118 158.188 194.784C157.407 195.451 156.511 195.956 155.506 196.295C154.501 196.633 153.359 196.806 152.096 196.806C150.534 196.806 149.116 196.495 147.83 195.881C146.544 195.267 145.447 194.417 144.54 193.349C143.627 192.275 142.915 191.035 142.392 189.623C141.87 188.21 141.612 186.706 141.612 185.116C141.612 184.76 141.617 184.427 141.634 184.117C141.652 183.795 141.68 183.479 141.709 183.152ZM142.932 178.765C143.518 177.565 144.247 176.52 145.125 175.648C146.004 174.769 147.026 174.086 148.197 173.598C149.368 173.11 150.649 172.869 152.05 172.869C153.416 172.869 154.674 173.139 155.828 173.672C156.982 174.206 157.998 174.924 158.877 175.82C159.755 176.716 160.467 177.755 161.024 178.938C161.575 180.126 161.948 181.384 162.144 182.716H141.761C141.956 181.286 142.346 179.965 142.932 178.765Z" fill="white"/>
<path d="M184.72 191.782C184.295 192.626 183.767 193.384 183.135 194.05C182.503 194.716 181.797 195.284 181.016 195.755C180.235 196.226 179.409 196.593 178.53 196.852C177.652 197.11 176.773 197.242 175.901 197.242C174.729 197.242 173.667 197.012 172.708 196.559C171.749 196.105 170.923 195.456 170.222 194.607C169.522 193.763 168.982 192.746 168.591 191.558C168.201 190.369 168.006 189.049 168.006 187.585V172.57L166.301 173.253V187.585C166.301 189.049 166.542 190.386 167.03 191.604C167.518 192.821 168.19 193.877 169.051 194.773C169.912 195.669 170.928 196.375 172.1 196.892C173.271 197.414 174.54 197.673 175.901 197.673C177.721 197.707 179.409 197.288 180.97 196.432C182.532 195.571 183.784 194.44 184.725 193.045V197.139L186.431 197.185V172.564L184.725 173.248V191.782H184.72Z" fill="white"/>
<path d="M180.161 169.734H173.11V170.256H180.161V169.734Z" fill="white"/>
<path d="M74.4976 216.93H73.7053L71.6497 219.531H70.7024V216.93H70.0364V219.531H69.089L67.0335 216.93H66.2354L68.5608 219.829L66.0115 222.735H66.8325L69.0947 220.128H70.0364V222.735H70.7024V220.128H71.644L73.9062 222.735H74.7215L72.178 219.829L74.4976 216.93Z" fill="white"/>
<path d="M78.4823 221.529V216.93H77.822V222.735H78.3445L82.1282 218.124V222.735H82.7943V216.93H82.2718L78.4823 221.529Z" fill="white"/>
<path d="M86.5263 220.857C86.4345 221.879 86.1933 222.252 85.6134 222.252V222.855C86.6469 222.855 87.066 222.293 87.2153 220.817L87.5483 217.55H90.3675V222.729H91.0278V216.93H86.934L86.5263 220.857Z" fill="white"/>
<path d="M96.7005 216.809C95.0756 216.809 93.8641 218.095 93.8641 219.841C93.8641 221.563 95.0814 222.855 96.7005 222.855C98.3598 222.855 99.5541 221.609 99.5541 219.841C99.5541 218.05 98.3598 216.809 96.7005 216.809ZM96.7005 222.229C95.4488 222.229 94.5302 221.207 94.5302 219.835C94.5302 218.451 95.4431 217.441 96.7005 217.441C98.0039 217.441 98.8881 218.417 98.8881 219.835C98.8881 221.242 97.9924 222.229 96.7005 222.229Z" fill="white"/>
<path d="M103.016 221.529V216.93H102.35V222.735H102.873L106.662 218.124V222.735H107.322V216.93H106.8L103.016 221.529Z" fill="white"/>
<path d="M118.8 216.93H118.002L115.946 219.531H115.005V216.93H114.339V222.735H115.005V220.128H115.941L118.203 222.735H119.024L116.48 219.829L118.8 216.93Z" fill="white"/>
<path d="M123.703 216.809C122.078 216.809 120.867 218.095 120.867 219.841C120.867 221.563 122.084 222.855 123.703 222.855C125.363 222.855 126.557 221.609 126.557 219.841C126.551 218.05 125.363 216.809 123.703 216.809ZM123.703 222.229C122.452 222.229 121.533 221.207 121.533 219.835C121.533 218.451 122.446 217.441 123.703 217.441C125.007 217.441 125.891 218.417 125.891 219.835C125.891 221.242 124.995 222.229 123.703 222.229Z" fill="white"/>
<path d="M132.304 222.006L130.18 216.93H129.342V222.735H130.008V218.061L131.994 222.735H132.603L134.584 218.073V222.735H135.244V216.93H134.417L132.304 222.006Z" fill="white"/>
<path d="M138.339 222.735H139.005V217.556H142.651V222.735H143.311V216.93H138.339V222.735Z" fill="white"/>
<path d="M147.055 220.857C146.963 221.879 146.722 222.252 146.142 222.252V222.855C147.175 222.855 147.594 222.293 147.744 220.817L148.077 217.55H150.896V222.729H151.556V216.93H147.462L147.055 220.857Z" fill="white"/>
<path d="M154.679 222.735H158.567V222.103H155.34V220.145H158.434V219.508H155.34V217.556H158.567V216.93H154.679V222.735Z" fill="white"/>
<path d="M166.128 216.93H165.336L163.28 219.531H162.333V216.93H161.673V222.735H162.333V220.128H163.269L165.531 222.735H166.352L163.809 219.829L166.128 216.93Z" fill="white"/>
<path d="M171.02 222.23C169.774 222.23 168.867 221.208 168.867 219.835C168.867 218.452 169.768 217.441 171.02 217.441C171.95 217.441 172.697 217.981 173.024 218.819H173.747C173.334 217.585 172.312 216.815 171.037 216.815C169.407 216.815 168.201 218.101 168.201 219.847C168.201 221.569 169.412 222.861 171.037 222.861C172.323 222.861 173.334 222.092 173.747 220.857H173.035C172.691 221.696 171.944 222.23 171.02 222.23Z" fill="white"/>
<path d="M105.712 214.649L104.056 216.034L104.48 216.541L106.136 215.156L105.712 214.649Z" fill="white"/>
<path d="M152.744 47.2076C150.218 44.6813 147.267 42.7923 143.966 41.5866V38.2163C143.966 31.8029 141.456 25.7627 136.898 21.2038C134.044 18.3502 130.53 16.2488 126.741 15.1292C124.84 14.555 122.848 14.2278 120.81 14.1474C120.505 14.1359 120.195 14.1301 119.885 14.1301C113.472 14.1301 107.432 16.645 102.873 21.2038C100.915 23.156 99.3244 25.3952 98.1416 27.8526C93.9617 28.9091 90.1148 31.1024 87.0144 34.2029C82.4555 38.7675 79.9464 44.8077 79.9464 51.2153V83.9024H95.7933V109.9H143.96V96.9014H159.812V64.2143C159.812 57.8124 157.303 51.7722 152.744 47.2076ZM159.192 64.2201V96.2871H143.96V42.2526C147.089 43.4354 149.897 45.2497 152.302 47.6497C156.746 52.088 159.192 57.9732 159.192 64.2201ZM81.9502 83.2823V51.2153C81.9502 44.8536 84.4478 38.8478 88.978 34.3177C91.4928 31.7971 94.444 29.9139 97.7512 28.7196C96.4536 31.7282 95.7933 34.9206 95.7933 38.2163V83.2823H81.9502ZM97.8029 83.9024H111.646V96.9014H143.345V109.28H97.8029V83.9024ZM126.098 43.2517C127.028 45.8067 127.493 48.488 127.493 51.221V83.288H113.65V64.2201C113.65 57.8584 116.147 51.8526 120.678 47.3225C122.285 45.7148 124.105 44.3483 126.098 43.2517ZM113.65 83.9024H128.113V51.2153C128.113 48.3789 127.619 45.5942 126.643 42.9474C127.969 42.2584 129.359 41.7014 130.766 41.2823C132.367 40.9263 134.038 40.7483 135.732 40.7483C136.042 40.7483 136.352 40.7541 136.656 40.7655C138.936 40.8517 141.181 41.2765 143.345 42.023V96.2813H113.65V83.9024ZM135.732 40.1282C132.465 40.1282 129.29 40.777 126.304 42.0574C125.093 39.1234 123.319 36.4823 121.039 34.2029C118.197 31.355 114.683 29.2536 110.888 28.1282C108.988 27.5541 106.995 27.2268 104.957 27.1464C104.653 27.1349 104.343 27.1292 104.027 27.1292C102.827 27.1292 101.61 27.2211 100.398 27.4048C101.546 25.1541 103.039 23.11 104.831 21.3187C107.667 18.4823 111.152 16.3981 114.913 15.2842C116.813 14.8651 118.8 14.6871 120.81 14.7675C126.689 14.9971 132.247 17.4373 136.45 21.6459C140.894 26.0842 143.345 31.9694 143.345 38.2163V41.3799L143.242 41.3455C143.03 41.2708 142.806 41.1962 142.588 41.133C140.687 40.5589 138.695 40.2316 136.662 40.1512C136.352 40.134 136.036 40.1282 135.732 40.1282ZM120.597 34.645C122.819 36.867 124.547 39.4507 125.73 42.3158C123.123 43.5158 120.764 45.1579 118.72 47.2076C114.155 51.7722 111.646 57.8124 111.646 64.2201V83.288H97.8029V38.222C97.8029 34.6794 98.5608 31.2746 100.054 28.0995C101.374 27.8698 102.706 27.755 104.027 27.755C104.337 27.755 104.641 27.7608 104.951 27.7722C110.836 27.9962 116.394 30.4364 120.597 34.645Z" fill="white"/>
</g>
<defs>
<clipPath id="clip0_5476_721">
<rect width="240" height="240" fill="white"/>
</clipPath>
</defs>
</svg>
